<?xml version="1.0" encoding="utf-8"?>
<!-- Generator: Adobe Illustrator 26.3.1, SVG Export Plug-In . SVG Version: 6.00 Build 0)  -->
<svg version="1.1"
	 id="svg5666" xmlns:inkscape="http://www.inkscape.org/namespaces/inkscape" xmlns:sodipodi="http://sodipodi.sourceforge.net/DTD/sodipodi-0.dtd" xmlns:svg="http://www.w3.org/2000/svg" inkscape:version="0.92.4 (5da689c313, 2019-01-14)" sodipodi:docname="Símbolo_Akagan.svg" inkscape:export-ydpi="300" inkscape:export-filename="C:\Users\Lukas Pessoa Dantas\Desktop\Símbolo_Keryuugan2.png" inkscape:export-xdpi="300" xmlns:dc="http://purl.org/dc/elements/1.1/" xmlns:rdf="http://www.w3.org/1999/02/22-rdf-syntax-ns#" xmlns:cc="http://creativecommons.org/ns#"
	 xmlns="http://www.w3.org/2000/svg" xmlns:xlink="http://www.w3.org/1999/xlink" x="0px" y="0px" viewBox="0 0 125 125"
	 style="enable-background:new 0 0 125 125;" xml:space="preserve">
<style type="text/css">
	.st0{fill:url(#base_00000151511031765866874000000009607272376633002629_);stroke:#000000;stroke-width:9;}
	.st1{fill:#7D0000;}
	
		.st2{opacity:0.52;fill:url(#path5664_00000178898640232733714340000001165636410295257226_);stroke:url(#path5664_00000142146145016344034850000016427146200583141294_);enable-background:new    ;}
</style>
<sodipodi:namedview  bordercolor="#666666" borderopacity="1" gridtolerance="10" guidetolerance="10" id="namedview5751" inkscape:current-layer="svg5666" inkscape:cx="100.10686" inkscape:cy="149.99995" inkscape:pageopacity="0" inkscape:pageshadow="2" inkscape:window-height="715" inkscape:window-maximized="1" inkscape:window-width="1360" inkscape:window-x="-8" inkscape:window-y="-8" inkscape:zoom="1.112515" objecttolerance="10" pagecolor="#ffffff" showgrid="false">
	</sodipodi:namedview>
<radialGradient id="base_00000123429290397170097100000013994062295874884538_" cx="-6.1921" cy="32.7313" r="48.6618" gradientTransform="matrix(0.9659 -0.2588 -0.2588 -0.9659 76.9526 92.5134)" gradientUnits="userSpaceOnUse">
	<stop  offset="0" style="stop-color:#9D0300"/>
	<stop  offset="0.3509" style="stop-color:#B90302"/>
	<stop  offset="0.5386" style="stop-color:#CA0404"/>
	<stop  offset="0.5981" style="stop-color:#CA0404"/>
	<stop  offset="0.8374" style="stop-color:#9D0300"/>
	<stop  offset="0.9015" style="stop-color:#8E0100"/>
	<stop  offset="1" style="stop-color:#7D0000"/>
</radialGradient>
<circle id="base" style="fill:url(#base_00000123429290397170097100000013994062295874884538_);stroke:#000000;stroke-width:9;" cx="62.5" cy="62.5" r="48.2"/>
<circle id="centro" class="st1" cx="62.5" cy="62.5" r="10.8"/>
<radialGradient id="path5664_00000105407212363942379500000009530766290749131710_" cx="62.5" cy="64.6009" r="45.1543" gradientTransform="matrix(1 0 0 -1.0004 0 127.1275)" gradientUnits="userSpaceOnUse">
	<stop  offset="0" style="stop-color:#FF7572"/>
	<stop  offset="0.6334" style="stop-color:#FF7572"/>
	<stop  offset="1" style="stop-color:#FF7572;stop-opacity:0"/>
</radialGradient>
<radialGradient id="path5664_00000137828766988329287980000010486622406068951966_" cx="62.5" cy="64.6111" r="45.5931" gradientTransform="matrix(1 0 0 -1.0004 0 127.1275)" gradientUnits="userSpaceOnUse">
	<stop  offset="0" style="stop-color:#000000"/>
	<stop  offset="1" style="stop-color:#000000;stop-opacity:0"/>
</radialGradient>
<path id="path5664" inkscape:connector-curvature="0" style="opacity:0.52;fill:url(#path5664_00000105407212363942379500000009530766290749131710_);stroke:url(#path5664_00000137828766988329287980000010486622406068951966_);enable-background:new    ;" d="
	M61.8,103.2c-0.5-1.9-0.6-5.1-0.6-12.1s0.2-10.2,0.6-12.1c0.6-2.4,1.3,4.2,1.3,12.1S62.4,105.6,61.8,103.2z M71.8,101.6
	c-2.2-4.1-7.2-23.6-6-23.6c1.2,0,6.7,19.6,6.5,23.3l-0.1,1.2L71.8,101.6L71.8,101.6z M51,101.1c0-3.9,5.4-23.3,6.5-23.3
	c0.8,0-1.5,10.8-4,18.4c-1,3.2-2.2,6-2.5,6C51,102.2,51,101.7,51,101.1z M81.8,97.4c-2.1-2.5-6.1-9.1-9.2-15c-2-4-2.7-5.6-2.4-5.9
	c0.9-0.9,12.8,19.5,12.5,21.5C82.6,98.2,82.5,98.2,81.8,97.4L81.8,97.4z M41.2,97.4c0.2-1.1,3.5-7.7,5.8-11.5
	c3.3-5.6,6.2-9.7,6.8-9.7c0.5,0-1.7,4.9-4.3,9.6c-3.2,5.7-6.2,10.4-7.6,11.6L41,98.1L41.2,97.4L41.2,97.4z M89.7,90.8
	C85,87.3,72.8,74.6,73.5,73.9c0.8-0.8,15.8,13.8,17.6,17.2C91.5,91.8,90.9,91.7,89.7,90.8L89.7,90.8z M32.7,91.1
	c0-0.1,0.4-0.7,0.8-1.3c3.7-4.9,16.3-17.1,17-16.4c0.7,0.7-10.4,12.5-15.9,16.7C33.3,91.2,32.7,91.5,32.7,91.1L32.7,91.1z
	 M94.6,82.1c-3.9-1.8-10-5.3-14.7-8.3c-3-2-4.2-2.9-3.9-3.1c0.6-0.6,10.8,4.7,17.7,9.3c1.6,1.1,3.2,2.2,3.6,2.6l0.6,0.7l-0.5,0
	C97.1,83.1,95.9,82.6,94.6,82.1L94.6,82.1z M26.9,81.9c3.5-3.3,20.3-12.6,21.1-11.8c0.4,0.4-4.3,3.6-9.7,6.8
	c-4.1,2.4-10.3,5.5-11.3,5.6l-0.8,0.1L26.9,81.9L26.9,81.9z M22.5,73c1-1.6,24.1-7.6,24.1-6.3c0,1.1-17.5,6.1-22.6,6.5
	C22.7,73.3,22.4,73.2,22.5,73z M96.6,72.6c-7.8-1.6-18.6-5-18.9-5.8c-0.4-1.4,21.5,4.2,23.8,6.1c0.5,0.4,0.5,0.4-0.8,0.4
	C100,73.2,98.1,72.9,96.6,72.6z M26.3,63.3c-1.3-0.1-3-0.3-3.7-0.4c-1.8-0.3-1.8-0.5-0.1-0.9c5.1-1,24-0.6,24,0.4
	c0,0.2-0.6,0.3-2.7,0.6C41.7,63.4,29.4,63.6,26.3,63.3L26.3,63.3z M83.5,63.3c-1.3-0.1-3-0.3-3.7-0.4c-1.8-0.3-1.8-0.5-0.1-0.9
	c5.1-1,24-0.6,24,0.4c0,0.2-0.6,0.3-2.7,0.6C98.9,63.4,86.6,63.6,83.5,63.3L83.5,63.3z M42.8,58.1c-4.9-0.9-15.8-3.9-19-5.4
	c-4.1-1.8,2.7-0.9,11.8,1.6c3.6,1,9,2.8,10.2,3.4C47.5,58.6,46.4,58.7,42.8,58.1L42.8,58.1z M77.6,58.3c0-1.1,17.8-6.2,22.6-6.4
	c1.7-0.1,1.7-0.1,1.2,0.3c-1.3,1.2-13.9,4.8-20.2,5.9C78.6,58.6,77.6,58.6,77.6,58.3L77.6,58.3z M45.9,53.8
	c-5.5-2.4-16-8.6-18.7-11.1c-0.8-0.7-0.8-0.8-0.4-0.8c1.9,0,15.3,7.4,20.3,11.3C49,54.7,48.5,55,45.9,53.8z M76.3,53.4
	c0.8-0.8,5.6-4.1,9.4-6.3C89.4,45,96,41.7,97,41.6l0.7-0.1L97,42.2c-2.5,2.6-18.7,11.9-20.8,11.9l-0.5,0L76.3,53.4L76.3,53.4z
	 M48.8,50C45,47.1,34.3,36.2,33.1,33.9c-0.4-0.8,0.3-0.5,1.8,0.7c3.6,2.7,11.9,11,14.6,14.6C51.4,51.6,51.2,51.8,48.8,50z M73,50.8
	c0-0.1,0.5-0.8,1-1.5c3.8-5,16.1-16.8,16.8-16.1c0.8,0.8-12.2,14.3-16.6,17.2C73.3,51,73,51.1,73,50.8z M52.6,47.1
	C48.7,42,41.5,29,41.5,27.1c0-0.4,0-0.4,0.6,0.2c1.6,1.5,6.9,10.2,9.7,15.8C54.6,48.5,54.9,50.2,52.6,47.1z M69.7,48.2
	c0-0.5,1.4-3.6,2.7-6c4-7.6,9.6-16.2,10-15.5c0.5,0.7-4.2,9.8-8.6,16.6C71.2,47.2,69.7,49.1,69.7,48.2z M56.7,45.7
	c-2.1-4.7-5.9-19.3-5.7-22l0.1-1l0.7,1.3c2.2,4.3,7,23.2,5.8,23.2C57.4,47.2,57,46.5,56.7,45.7L56.7,45.7z M65.7,46.4
	c0-3.5,4.2-19.3,6-22.8l0.6-1.1l0.1,1.2c0.1,1.5-0.8,6-2.3,11.4C67.9,43.1,65.7,48.9,65.7,46.4z M61.8,46.1
	c-0.5-1.9-0.6-5.1-0.6-12.1s0.2-10.2,0.6-12.1c0.6-2.4,1.3,4.2,1.3,12.1S62.4,48.5,61.8,46.1z"/>
</svg>
