<?xml version="1.0" encoding="utf-8"?>
<!-- Generator: Adobe Illustrator 26.3.1, SVG Export Plug-In . SVG Version: 6.00 Build 0)  -->
<svg version="1.1"
	 id="svg3347" xmlns:inkscape="http://www.inkscape.org/namespaces/inkscape" xmlns:sodipodi="http://sodipodi.sourceforge.net/DTD/sodipodi-0.dtd" xmlns:svg="http://www.w3.org/2000/svg" sodipodi:version="0.32" inkscape:version="0.46" sodipodi:docname="Nature Icon Wind.svg" inkscape:output_extension="org.inkscape.output.svg.inkscape"
	 xmlns="http://www.w3.org/2000/svg" xmlns:xlink="http://www.w3.org/1999/xlink" x="0px" y="0px" viewBox="0 0 125 125"
	 style="enable-background:new 0 0 125 125;" xml:space="preserve">
<style type="text/css">
	
		.st0{fill-rule:evenodd;clip-rule:evenodd;fill:url(#Wind_icon_00000121965764237696967930000004949502881477920406_);stroke:#000000;stroke-width:5.6604;}
</style>
<sodipodi:namedview  bordercolor="#666666" borderopacity="1.0" gridtolerance="10.0" guidetolerance="10.0" id="base" inkscape:current-layer="svg3347" inkscape:cx="50.000003" inkscape:cy="50.000002" inkscape:pageopacity="0.0" inkscape:pageshadow="2" inkscape:window-height="930" inkscape:window-width="1280" inkscape:window-x="-4" inkscape:window-y="-4" inkscape:zoom="7.1699998" objecttolerance="10.0" pagecolor="#ffffff" showgrid="false">
	</sodipodi:namedview>
<radialGradient id="Wind_icon_00000084520382296144790830000011363237886839036047_" cx="117.65" cy="-115.7122" r="26.5" gradientTransform="matrix(1.8868 0 0 -1.8868 -159.4811 -155.8249)" gradientUnits="userSpaceOnUse">
	<stop  offset="0" style="stop-color:#00F89E"/>
	<stop  offset="1" style="stop-color:#00A86B"/>
</radialGradient>
<path id="Wind_icon" sodipodi:nodetypes="ccccccccc" style="fill-rule:evenodd;clip-rule:evenodd;fill:url(#Wind_icon_00000084520382296144790830000011363237886839036047_);stroke:#000000;stroke-width:5.6604;" d="
	M15.3,43.6l28.3-28.3h37.7l28.3,28.3v37.7l-28.3,28.3H43.6L15.3,81.4V43.6z"/>
<path id="Wind_kanji" d="M45.9,81.2l12.9-0.5V70.2h-5.3v4.2h-4.1V54.3h9.3v-5L49,49.6l-1.4-5c9.2,0.2,17-0.4,23.2-1.8l3.1,4.7
	c0.2,1.2-0.3,1.5-1.4,0.8l-9.6,0.8v5.2h9.6v15.9h-9.6v10.2l7.4-0.8l-3.6-5l3.8-2.9c3.3,3.8,6.1,7.9,8.4,12.3l-4.5,3.1l-2.1-3.9
	l-23.4,3.4c-0.2,1.2-0.6,1.5-1.2,0.8L45.9,81.2z M83.6,77.2c1.4,3.8,2.4,2.4,2.9-4.2l4.3,3.9c-0.6,5.9-1.6,9.4-2.9,10.4
	c-2.7,2.3-5.5,0-8.4-6.8c-1.9-4.5-2.9-11-2.9-19.6V39.2h-31v28.4c0,8.3-2.7,15.6-8.1,21.7l-3.3-5c4.5-4.5,6.7-10.5,6.7-18V34.2h40.6
	v26.6C81.5,67.9,82.2,73.4,83.6,77.2L83.6,77.2z M68.4,58.5h-5.5V66h5.5V58.5z M58.8,58.5h-5.3V66h5.3V58.5z"/>
</svg>
