<?xml version="1.0" encoding="utf-8"?>
<!-- Generator: Adobe Illustrator 26.3.1, SVG Export Plug-In . SVG Version: 6.00 Build 0)  -->
<svg version="1.1"
	 id="svg3347" xmlns:inkscape="http://www.inkscape.org/namespaces/inkscape" xmlns:sodipodi="http://sodipodi.sourceforge.net/DTD/sodipodi-0.dtd" xmlns:svg="http://www.w3.org/2000/svg" sodipodi:version="0.32" inkscape:version="0.46" sodipodi:docname="Nature Icon Fire.svg" inkscape:output_extension="org.inkscape.output.svg.inkscape"
	 xmlns="http://www.w3.org/2000/svg" xmlns:xlink="http://www.w3.org/1999/xlink" x="0px" y="0px" viewBox="0 0 125 125"
	 style="enable-background:new 0 0 125 125;" xml:space="preserve">
<style type="text/css">
	
		.st0{fill-rule:evenodd;clip-rule:evenodd;fill:url(#Fire_icon_00000101084433690681623160000010165161745589894016_);stroke:#000000;stroke-width:5.6604;}
</style>
<sodipodi:namedview  bordercolor="#666666" borderopacity="1.0" gridtolerance="10.0" guidetolerance="10.0" id="base" inkscape:current-layer="svg3347" inkscape:cx="29.497905" inkscape:cy="49.999999" inkscape:pageopacity="0.0" inkscape:pageshadow="2" inkscape:window-height="930" inkscape:window-width="1280" inkscape:window-x="-4" inkscape:window-y="-4" inkscape:zoom="7.1699998" objecttolerance="10.0" pagecolor="#ffffff" showgrid="false">
	</sodipodi:namedview>
<radialGradient id="Fire_icon_00000109007004404214167940000007308614554712156826_" cx="62.5" cy="64.5" r="50" gradientTransform="matrix(1 0 0 -1 0 127)" gradientUnits="userSpaceOnUse">
	<stop  offset="0" style="stop-color:#FF0000"/>
	<stop  offset="1" style="stop-color:#B00000"/>
</radialGradient>
<path id="Fire_icon" sodipodi:nodetypes="ccccccccc" style="fill-rule:evenodd;clip-rule:evenodd;fill:url(#Fire_icon_00000109007004404214167940000007308614554712156826_);stroke:#000000;stroke-width:5.6604;" d="
	M15.3,43.6l28.3-28.3h37.7l28.3,28.3v37.7l-28.3,28.3H43.6L15.3,81.4V43.6z"/>
<path id="Fire_kanji" d="M62.4,66.7c-3.7,11-12,19-25,24.1l-3.1-6.3c16.3-5.1,24.5-15.1,24.5-30.2V34.2l6,0.5c1,0.3,1,1,0,2v17.5
	c0,13,8.7,22.8,26.1,29.4L88.2,90C75.2,85,66.5,77.2,62.4,66.7L62.4,66.7z M85.8,49.9c-3.3,6.8-6.1,11.6-8.3,14.5l-5.2-3.3
	c3.1-4.1,6-9.3,8.6-15.7l5.7,2.8C87.7,48.7,87.4,49.3,85.8,49.9L85.8,49.9z M38.6,63.4c2.4-4.4,3.6-10.1,3.4-17l6.5,1.5
	c1.4,0.5,1.4,1.1,0,1.8c0,4.9-1.1,10.2-3.4,15.7L38.6,63.4z"/>
</svg>
