<?xml version="1.0" encoding="utf-8"?>
<!-- Generator: Adobe Illustrator 26.3.1, SVG Export Plug-In . SVG Version: 6.00 Build 0)  -->
<svg version="1.1"
	 id="svg3347" xmlns:inkscape="http://www.inkscape.org/namespaces/inkscape" xmlns:sodipodi="http://sodipodi.sourceforge.net/DTD/sodipodi-0.dtd" xmlns:svg="http://www.w3.org/2000/svg" sodipodi:version="0.32" inkscape:version="0.46" sodipodi:docname="Nature Icon Lightning.svg" inkscape:output_extension="org.inkscape.output.svg.inkscape"
	 xmlns="http://www.w3.org/2000/svg" xmlns:xlink="http://www.w3.org/1999/xlink" x="0px" y="0px" viewBox="0 0 125 125"
	 style="enable-background:new 0 0 125 125;" xml:space="preserve">
<style type="text/css">
	
		.st0{fill-rule:evenodd;clip-rule:evenodd;fill:url(#Lightning_icon_00000005957995593955638040000004602250595271845530_);stroke:#000000;stroke-width:5.6604;}
</style>
<sodipodi:namedview  bordercolor="#666666" borderopacity="1.0" gridtolerance="10.0" guidetolerance="10.0" id="base" inkscape:current-layer="svg3347" inkscape:cx="50" inkscape:cy="50.000001" inkscape:pageopacity="0.0" inkscape:pageshadow="2" inkscape:window-height="922" inkscape:window-width="632" inkscape:window-x="640" inkscape:window-y="0" inkscape:zoom="1" objecttolerance="10.0" pagecolor="#ffffff" showgrid="false">
	</sodipodi:namedview>
<radialGradient id="Lightning_icon_00000011000488179927639370000014653040318309063817_" cx="172.65" cy="-115.7122" r="26.5" gradientTransform="matrix(1.8868 0 0 -1.8868 -263.2547 -155.8249)" gradientUnits="userSpaceOnUse">
	<stop  offset="0" style="stop-color:#FFF101"/>
	<stop  offset="1" style="stop-color:#CCC000"/>
</radialGradient>
<path id="Lightning_icon" sodipodi:nodetypes="ccccccccc" style="fill-rule:evenodd;clip-rule:evenodd;fill:url(#Lightning_icon_00000011000488179927639370000014653040318309063817_);stroke:#000000;stroke-width:5.6604;" d="
	M15.3,43.6l28.3-28.3h37.7l28.3,28.3v37.7l-28.3,28.3H43.6L15.3,81.4V43.6z"/>
<path id="Lightning_kanji" d="M80.3,90v-2H45v2.8h-4.5v-26h44.2V90H80.3z M45,68.9V74h15.3v-5.1H45z M64.7,78.1v5.9h15.5v-5.9H64.7z
	 M45,78.1v5.9h15.3v-5.9H45z M64.7,68.9V74h15.5v-5.1H64.7z M67.9,56.9h15.5V60H67.9V56.9z M67.9,50.3h15.5v3.1H67.9V50.3z
	 M41.6,56.9h15.5V60H41.6V56.9z M41.6,50.3h15.5v3.1H41.6V50.3z M60.3,42.6v-4.3H39.2v-4.1h46.6v4.1H64.7v4.3h26.1v11h-4.5v-6.9
	H64.7v15.8h-4.5V46.7H38.7v7.1h-4.5V42.6H60.3z"/>
</svg>
