<?xml version="1.0" encoding="utf-8"?>
<!-- Generator: Adobe Illustrator 26.3.1, SVG Export Plug-In . SVG Version: 6.00 Build 0)  -->
<svg version="1.1"
	 id="svg3347" xmlns:inkscape="http://www.inkscape.org/namespaces/inkscape" xmlns:sodipodi="http://sodipodi.sourceforge.net/DTD/sodipodi-0.dtd" xmlns:svg="http://www.w3.org/2000/svg" sodipodi:version="0.32" inkscape:version="0.46" sodipodi:docname="Nature Icon Water.svg" inkscape:output_extension="org.inkscape.output.svg.inkscape"
	 xmlns="http://www.w3.org/2000/svg" xmlns:xlink="http://www.w3.org/1999/xlink" x="0px" y="0px" viewBox="0 0 125 125"
	 style="enable-background:new 0 0 125 125;" xml:space="preserve">
<style type="text/css">
	
		.st0{fill-rule:evenodd;clip-rule:evenodd;fill:url(#Water_icon_00000141442542778491601250000012639671671133068944_);stroke:#000000;stroke-width:5.6604;}
</style>
<sodipodi:namedview  bordercolor="#666666" borderopacity="1.0" gridtolerance="10.0" guidetolerance="10.0" id="base" inkscape:current-layer="svg3347" inkscape:cx="49.999997" inkscape:cy="49.999994" inkscape:pageopacity="0.0" inkscape:pageshadow="2" inkscape:window-height="930" inkscape:window-width="1280" inkscape:window-x="-4" inkscape:window-y="-4" inkscape:zoom="7.1699998" objecttolerance="10.0" pagecolor="#ffffff" showgrid="false">
	</sodipodi:namedview>
<radialGradient id="Water_icon_00000026853431621358036300000000500839011356355742_" cx="7.65" cy="-170.7122" r="26.5" gradientTransform="matrix(1.8868 0 0 -1.8868 48.0661 -259.5984)" gradientUnits="userSpaceOnUse">
	<stop  offset="0" style="stop-color:#51A8FF"/>
	<stop  offset="1" style="stop-color:#007FFF"/>
</radialGradient>
<path id="Water_icon" sodipodi:nodetypes="ccccccccc" style="fill-rule:evenodd;clip-rule:evenodd;fill:url(#Water_icon_00000026853431621358036300000000500839011356355742_);stroke:#000000;stroke-width:5.6604;" d="
	M15.3,43.6l28.3-28.3h37.7l28.3,28.3v37.7l-28.3,28.3H43.6L15.3,81.4V43.6z"/>
<path id="Water_kanji" d="M87.9,87c-9.6-6.7-17.1-16.5-22.3-29.3v29.1c0,2.7-1.3,4-3.9,4h-5.9l-1-4.8h4.9c0.7,0,1-0.3,1-1V34.2h4.7
	c1.3,0.2,1.4,0.7,0.2,1.5V43c0,3.7,1.4,8.1,4.2,13.1c3.8-2.7,7.9-6.9,12.5-12.6l4.4,4.5c0.8,1.3,0.3,1.9-1.5,1.5
	c-3.9,3.7-8.3,7.3-13.2,10.9c4.7,8.6,11,15.5,18.9,20.7L87.9,87L87.9,87z M57.2,52.1c-2.6,16-9.4,27.6-20.3,34.9l-2.7-5.3
	c9-5.2,14.9-14.6,17.6-28H37.6v-4.8h14.2l1.5-2l4.2,3C58.6,50.5,58.5,51.3,57.2,52.1L57.2,52.1z"/>
</svg>
