<?xml version="1.0" encoding="utf-8"?>
<!-- Generator: Adobe Illustrator 26.3.1, SVG Export Plug-In . SVG Version: 6.00 Build 0)  -->
<svg version="1.1"
	 id="svg3347" xmlns:inkscape="http://www.inkscape.org/namespaces/inkscape" xmlns:sodipodi="http://sodipodi.sourceforge.net/DTD/sodipodi-0.dtd" xmlns:svg="http://www.w3.org/2000/svg" sodipodi:version="0.32" inkscape:version="0.47 r22583" sodipodi:docname="Nature Icon Explosion.svg" inkscape:output_extension="org.inkscape.output.svg.inkscape"
	 xmlns="http://www.w3.org/2000/svg" xmlns:xlink="http://www.w3.org/1999/xlink" x="0px" y="0px" viewBox="0 0 125 125"
	 style="enable-background:new 0 0 125 125;" xml:space="preserve">
<style type="text/css">
	
		.st0{fill-rule:evenodd;clip-rule:evenodd;fill:url(#Explosion_icon_00000153698897217188634650000005437283136708953010_);stroke:#000000;stroke-width:5.6604;}
</style>
<sodipodi:namedview  bordercolor="#666666" borderopacity="1.0" gridtolerance="10.0" guidetolerance="10.0" id="base" inkscape:current-layer="svg3347" inkscape:cx="204.31965" inkscape:cy="-15.335036" inkscape:object-nodes="false" inkscape:pageopacity="0.0" inkscape:pageshadow="2" inkscape:snap-center="false" inkscape:snap-object-midpoints="true" inkscape:window-height="940" inkscape:window-maximized="1" inkscape:window-width="1280" inkscape:window-x="-8" inkscape:window-y="-8" inkscape:zoom="1.4142136" objecttolerance="50" pagecolor="#ffffff" showgrid="false">
	</sodipodi:namedview>
<radialGradient id="Explosion_icon_00000032626979450983932930000012468702810501581203_" cx="62.5" cy="64.5" r="50" gradientTransform="matrix(1 0 0 -1 -1.248779e-06 127)" gradientUnits="userSpaceOnUse">
	<stop  offset="0" style="stop-color:#FFEFB1"/>
	<stop  offset="0.5" style="stop-color:#FFAA37"/>
	<stop  offset="1" style="stop-color:#B00000"/>
</radialGradient>
<path id="Explosion_icon" sodipodi:nodetypes="ccccccccccccccccccccc" style="fill-rule:evenodd;clip-rule:evenodd;fill:url(#Explosion_icon_00000032626979450983932930000012468702810501581203_);stroke:#000000;stroke-width:5.6604;" d="
	M15.3,43.6l9.4-9.4v-9.4h9.4l9.4-9.4h37.7l9.4,9.4h9.4v9.4l9.4,9.4v37.7l-9.4,9.4v9.4h-9.4l-9.4,9.4H43.6l-9.4-9.4h-9.4v-9.4
	l-9.4-9.4V43.6z"/>
<path id="Explosion_kanji" d="M79.4,68.8c2.8,3.3,6.7,5.9,11.8,7.9l-2,3.9c-2.1-1-4-2-5.6-3.2L81.4,81c2.3,1.1,4.8,2.6,7.6,4.4
	l-2.7,3.7c-4.7-3.8-8.9-6.2-12.5-7.4v4.9c0,2.5-0.9,3.7-2.7,3.7h-3.7l-1-3.9h2.5c0.5,0,0.7-0.2,0.7-0.7V82l-11.3,6.1
	c-0.3,1.1-0.7,1.4-1,0.7l-2.2-4.2l8.1-3.2L60,77.1c-1.8,1.5-3.5,2.6-5.2,3.4c0.3,0.3,0.6,0.9,0.7,1.7L51.4,85
	c-1.6-4.1-3.5-7.4-5.6-10.1c-1.3,5.7-4.3,10.9-8.8,15.5l-2.7-3.9c5.6-5.6,8.4-12.4,8.4-20.4V34.6h3.9c1.3,0.2,1.4,0.7,0.2,1.5v14.5
	c1.6-1.5,3.3-3.4,4.9-5.6l3.7,3.9c0.3,0.7-0.1,1-1.2,1c-2,2.1-4.4,4.4-7.4,6.9v12.8c2.1,2.1,4.1,4.7,5.9,7.6
	c4.3-2.1,7.6-4.9,10.1-8.4H52.2v-3.9h10.6v-3.4h-7.6v-3.9h7.6V53h-3.4h-3.2V35.9h29.7V53h-6.4v4.4h7.9v3.9h-7.9v3.4h11.1v3.9H79.4z
	 M33.8,64.1C35.2,59,36,53.3,36,46.9l4.7,1c0.5,0.5,0.3,1-0.5,1.5c0.2,4.6-0.6,10.2-2.2,16.7L33.8,64.1z M69.6,78.6v-8.1h3.9
	c1.3,0.2,1.4,0.7,0.2,1.5v6.1l3.9,1.5l2.7-4.7c-2.3-2-4-4-5.2-6.1h-8.4c-0.5,1.6-1.9,3.7-4.2,6.1l4.2,5.2L69.6,78.6z M60.3,38.8V43
	h21.4v-4.2H60.3z M60.3,45.9v4.2h21.4v-4.2H60.3z M66.9,53v4.4h8.4V53H66.9z M66.9,61.4v3.4h8.4v-3.4H66.9z"/>
</svg>
