<?xml version="1.0" encoding="utf-8"?>
<!-- Generator: Adobe Illustrator 26.3.1, SVG Export Plug-In . SVG Version: 6.00 Build 0)  -->
<svg version="1.1"
	 id="svg3347" xmlns:inkscape="http://www.inkscape.org/namespaces/inkscape" xmlns:sodipodi="http://sodipodi.sourceforge.net/DTD/sodipodi-0.dtd" xmlns:svg="http://www.w3.org/2000/svg" sodipodi:version="0.32" inkscape:version="0.46" sodipodi:docname="Nature Icon Blaze.svg" inkscape:output_extension="org.inkscape.output.svg.inkscape"
	 xmlns="http://www.w3.org/2000/svg" xmlns:xlink="http://www.w3.org/1999/xlink" x="0px" y="0px" viewBox="0 0 125 125"
	 style="enable-background:new 0 0 125 125;" xml:space="preserve">
<style type="text/css">
	
		.st0{fill-rule:evenodd;clip-rule:evenodd;fill:url(#Blaze_icon_00000160912430381888311260000004334732354447687814_);stroke:#000000;stroke-width:5.6604;}
</style>
<sodipodi:namedview  bordercolor="#666666" borderopacity="1.0" gridtolerance="10.0" guidetolerance="10.0" id="base" inkscape:current-layer="svg3347" inkscape:cx="43.710949" inkscape:cy="37.377172" inkscape:object-nodes="true" inkscape:object-paths="false" inkscape:pageopacity="0.0" inkscape:pageshadow="2" inkscape:snap-center="true" inkscape:window-height="930" inkscape:window-width="1280" inkscape:window-x="-4" inkscape:window-y="-4" inkscape:zoom="5.0699554" objecttolerance="50" pagecolor="#ffffff" showgrid="false">
	</sodipodi:namedview>
<radialGradient id="Blaze_icon_00000093166692658539807120000014698693897494309781_" cx="62.5" cy="64.5" r="50" gradientTransform="matrix(1 0 0 -1 0 127)" gradientUnits="userSpaceOnUse">
	<stop  offset="0" style="stop-color:#AD0000"/>
	<stop  offset="1" style="stop-color:#140000"/>
</radialGradient>
<path id="Blaze_icon" sodipodi:nodetypes="ccccccccccccccccccccc" style="fill-rule:evenodd;clip-rule:evenodd;fill:url(#Blaze_icon_00000093166692658539807120000014698693897494309781_);stroke:#000000;stroke-width:5.6604;" d="
	M15.3,43.6l9.4-9.4v-9.4h9.4l9.4-9.4h37.7l9.4,9.4h9.4v9.4l9.4,9.4v37.7l-9.4,9.4v9.4h-9.4l-9.4,9.4H43.6l-9.4-9.4h-9.4v-9.4
	l-9.4-9.4V43.6z"/>
<path id="Blaze_kanji" d="M64.1,34.7c1.4,0.2,1.4,0.7,0,1.5V44c3,8.3,11.7,13.7,25.9,16l-1.3,5.8c-14.1-3.2-22.9-8.3-26.4-15.5
	c-2.7,8-11.2,13.1-25.6,15.3L35,60c15.8-1,23.8-7.3,23.8-19v-6.8L64.1,34.7z M89.7,90.6c-11.9-2-21.1-7.2-27.5-15.5
	c-3,8.3-11.7,13.6-25.9,15.8L34.2,85c16.4-1.2,24.6-7.7,24.6-19.5v-5.8l6.1,0.8c1.2,0.5,1.2,1.1-0.3,1.8c-0.4,2.5-0.6,5-0.8,7.5
	c5.5,8.2,14.5,13,27,14.5L89.7,90.6z M71.6,47.5c3.9-3.2,6.5-6.4,7.7-9.8l5.9,3.5c0.5,0.7,0.1,1.1-1.3,1.3c-1.6,2.5-4,5.3-7.2,8.3
	L71.6,47.5z M51,42c-0.5,3.5-2,6.8-4.5,9.8l-5.9-2.5c2.5-3,4-6.2,4.5-9.5L51,42z M71.8,73c2.8-2.8,5.2-5.7,6.9-8.5l5.3,3.5
	c0.5,0.5,0,1-1.6,1.5c-1.6,2-3.7,4.3-6.4,7L71.8,73z M51.3,68.3c-0.4,2.5-2,5.8-4.8,9.8l-5.6-3c2.5-3.2,4.1-6.3,4.8-9.3L51.3,68.3z"
	/>
</svg>
