<?xml version="1.0" encoding="utf-8"?>
<!-- Generator: Adobe Illustrator 26.3.1, SVG Export Plug-In . SVG Version: 6.00 Build 0)  -->
<svg version="1.1"
	 id="svg3347" xmlns:inkscape="http://www.inkscape.org/namespaces/inkscape" xmlns:sodipodi="http://sodipodi.sourceforge.net/DTD/sodipodi-0.dtd" xmlns:svg="http://www.w3.org/2000/svg" sodipodi:version="0.32" inkscape:version="0.46" sodipodi:docname="Nature Icon Boil.svg" inkscape:output_extension="org.inkscape.output.svg.inkscape"
	 xmlns="http://www.w3.org/2000/svg" xmlns:xlink="http://www.w3.org/1999/xlink" x="0px" y="0px" viewBox="0 0 125 125"
	 style="enable-background:new 0 0 125 125;" xml:space="preserve">
<style type="text/css">
	
		.st0{fill-rule:evenodd;clip-rule:evenodd;fill:url(#Boil_icon_00000103246155281883640010000002102417969662912406_);stroke:#000000;stroke-width:5.6604;}
</style>
<sodipodi:namedview  bordercolor="#666666" borderopacity="1.0" gridtolerance="10.0" guidetolerance="10.0" id="base" inkscape:current-layer="svg3347" inkscape:cx="-108.9291" inkscape:cy="74.076906" inkscape:object-nodes="true" inkscape:object-paths="false" inkscape:pageopacity="0.0" inkscape:pageshadow="2" inkscape:snap-center="true" inkscape:window-height="930" inkscape:window-width="1280" inkscape:window-x="-4" inkscape:window-y="-4" inkscape:zoom="1" objecttolerance="50" pagecolor="#ffffff" showgrid="false">
	</sodipodi:namedview>
<radialGradient id="Boil_icon_00000082362808836224648320000007144021026748662404_" cx="62.5" cy="64.5" r="50" gradientTransform="matrix(1 0 0 -1 0 127)" gradientUnits="userSpaceOnUse">
	<stop  offset="0" style="stop-color:#FFFFFF"/>
	<stop  offset="1" style="stop-color:#B00000"/>
</radialGradient>
<path id="Boil_icon" sodipodi:nodetypes="ccccccccccccccccccccc" style="fill-rule:evenodd;clip-rule:evenodd;fill:url(#Boil_icon_00000082362808836224648320000007144021026748662404_);stroke:#000000;stroke-width:5.6604;" d="
	M15.3,43.6l9.4-9.4v-9.4h9.4l9.4-9.4h37.7l9.4,9.4h9.4v9.4l9.4,9.4v37.7l-9.4,9.4v9.4h-9.4l-9.4,9.4H43.6l-9.4-9.4h-9.4v-9.4
	l-9.4-9.4V43.6z"/>
<path id="Boil_kanji" d="M82.8,59.9v-1.5h-5.1v6.3h13.1l-1,12.9c-0.3,3.7-2.1,5.6-5.3,5.6h-3.6l-0.5-4.6h2.7c1.6,0,2.4-1,2.4-2.9
	l0.2-6.3h-8v20.6h-4.8V69.4h-5.6c0.2,11-5.1,18.1-15.7,21.4l-1.9-5.1c8.5-2.3,12.8-7.7,12.8-16.3h-5.6l-0.5,3.9l-4.8-0.2l1.7-19.2
	h9.2v-6.6H51.6v-4.6h10.9v-8.5h4.6c1.3,0.2,1.4,0.6,0.2,1.5v7h5.6v-8.5h4.6c1.3,0.2,1.4,0.6,0.2,1.5v7h9.9v17.2H82.8z M38.6,51.2
	c4,1.8,7.2,3.9,9.4,6.3l-3.1,4.9c-2.4-2.6-5.4-4.9-9-7L38.6,51.2z M62.5,64.8v-6.3h-4.6l-0.5,6.3H62.5z M72.9,58.5h-5.6v6.3h5.6
	V58.5z M72.9,53.9v-6.6h-5.6v6.6H72.9z M82.8,53.9v-6.6h-5.1v6.6H82.8z M40.5,36.9c3.9,1.6,7,3.6,9.4,6.1l-3.1,4.6
	c-2.3-2.1-5.3-4.2-9.2-6.3L40.5,36.9z M34.2,85.7c5.3-6.6,9-12.8,10.9-18.5l4.1,2.9c-1.5,4.7-4.5,10.7-9.2,18c0.3,1.3,0.1,1.6-0.7,1
	L34.2,85.7L34.2,85.7z"/>
</svg>
