<?xml version="1.0" encoding="utf-8"?>
<!-- Generator: Adobe Illustrator 26.3.1, SVG Export Plug-In . SVG Version: 6.00 Build 0)  -->
<svg version="1.1"
	 id="svg3347" xmlns:inkscape="http://www.inkscape.org/namespaces/inkscape" xmlns:sodipodi="http://sodipodi.sourceforge.net/DTD/sodipodi-0.dtd" xmlns:svg="http://www.w3.org/2000/svg" sodipodi:version="0.32" inkscape:version="0.46" sodipodi:docname="Nature Icon Ice.svg" inkscape:output_extension="org.inkscape.output.svg.inkscape"
	 xmlns="http://www.w3.org/2000/svg" xmlns:xlink="http://www.w3.org/1999/xlink" x="0px" y="0px" viewBox="0 0 125 125"
	 style="enable-background:new 0 0 125 125;" xml:space="preserve">
<style type="text/css">
	
		.st0{fill-rule:evenodd;clip-rule:evenodd;fill:url(#Ice_icon_00000122679446284721828710000012404418336223691432_);stroke:#000000;stroke-width:5.6604;}
</style>
<sodipodi:namedview  bordercolor="#666666" borderopacity="1.0" gridtolerance="10.0" guidetolerance="10.0" id="base" inkscape:current-layer="svg3347" inkscape:cx="49.999997" inkscape:cy="49.999999" inkscape:pageopacity="0.0" inkscape:pageshadow="2" inkscape:window-height="922" inkscape:window-width="632" inkscape:window-x="640" inkscape:window-y="0" inkscape:zoom="2.4199999" objecttolerance="10.0" pagecolor="#ffffff" showgrid="false">
	</sodipodi:namedview>
<radialGradient id="Ice_icon_00000063594403906622041240000014958872550422252691_" cx="62.5" cy="64.5" r="50" gradientTransform="matrix(1 0 0 -1 0 127)" gradientUnits="userSpaceOnUse">
	<stop  offset="0" style="stop-color:#00F89E"/>
	<stop  offset="1" style="stop-color:#BADCFF"/>
</radialGradient>
<path id="Ice_icon" style="fill-rule:evenodd;clip-rule:evenodd;fill:url(#Ice_icon_00000063594403906622041240000014958872550422252691_);stroke:#000000;stroke-width:5.6604;" d="
	M15.3,81.4V43.6l9.4-9.4v-9.4h9.4l9.4-9.4h37.7l9.4,9.4h9.4v9.4l9.4,9.4v37.7l-9.4,9.4v9.4h-9.4l-9.4,9.4H43.6l-9.4-9.4h-9.4v-9.4
	L15.3,81.4z"/>
<path id="Ice_kanji" d="M64.9,44.1c1,4.3,2.6,8.4,4.8,12.2c3.7-2.9,7.6-7,11.8-12.2l4.8,4.4c0.2,0.9-0.3,1.1-1.3,0.8
	c-3.9,4-8.1,7.9-12.8,11.7c4.5,7.4,10.7,13.4,18.6,17.9l-2.8,6c-9.7-5.7-17.4-14.5-23.1-26.2v28c0,2.8-1.3,4.2-4,4.2h-4.5l-1-5.7
	h3.5c0.7,0,1-0.3,1-1V34.2h4.8c1.7,0.3,1.8,1,0.3,2.1V44.1z M36.5,57.8v-5.7h19.6c0,15.6-6.2,27.2-18.6,34.8l-3.3-5.5
	C43.6,75.9,49,68,50.3,57.8H36.5z M45.3,37.3c3.5,1.7,6.5,3.8,9.1,6.2l-3.5,4.7c-2.2-2.3-5.1-4.4-8.8-6.5L45.3,37.3z"/>
</svg>
