<?xml version="1.0" encoding="utf-8"?>
<!-- Generator: Adobe Illustrator 26.3.1, SVG Export Plug-In . SVG Version: 6.00 Build 0)  -->
<svg version="1.1"
	 id="svg3347" xmlns:inkscape="http://www.inkscape.org/namespaces/inkscape" xmlns:sodipodi="http://sodipodi.sourceforge.net/DTD/sodipodi-0.dtd" xmlns:svg="http://www.w3.org/2000/svg" sodipodi:version="0.32" inkscape:version="0.47 r22583" sodipodi:docname="Nature Icon Magnetism.svg" inkscape:output_extension="org.inkscape.output.svg.inkscape"
	 xmlns="http://www.w3.org/2000/svg" xmlns:xlink="http://www.w3.org/1999/xlink" x="0px" y="0px" viewBox="0 0 125 125"
	 style="enable-background:new 0 0 125 125;" xml:space="preserve">
<style type="text/css">
	
		.st0{fill-rule:evenodd;clip-rule:evenodd;fill:url(#Magnetism_icon_00000108283371905648140220000016769467735592162495_);stroke:#000000;stroke-width:5.6604;}
</style>
<sodipodi:namedview  bordercolor="#666666" borderopacity="1.0" gridtolerance="10.0" guidetolerance="10.0" id="base" inkscape:current-layer="svg3347" inkscape:cx="43.219457" inkscape:cy="25.694789" inkscape:object-nodes="false" inkscape:pageopacity="0.0" inkscape:pageshadow="2" inkscape:snap-center="false" inkscape:snap-object-midpoints="true" inkscape:window-height="940" inkscape:window-maximized="1" inkscape:window-width="1280" inkscape:window-x="-8" inkscape:window-y="-8" inkscape:zoom="1" objecttolerance="50" pagecolor="#ffffff" showgrid="false">
	</sodipodi:namedview>
<radialGradient id="Magnetism_icon_00000135668455084750845290000015030311147981950897_" cx="62.5" cy="64.5" r="50" gradientTransform="matrix(1 0 0 -1 3.751221e-06 127)" gradientUnits="userSpaceOnUse">
	<stop  offset="0" style="stop-color:#B051FF"/>
	<stop  offset="1" style="stop-color:#8B00FF"/>
</radialGradient>
<path id="Magnetism_icon" sodipodi:nodetypes="ccccccccccccccccccccc" style="fill-rule:evenodd;clip-rule:evenodd;fill:url(#Magnetism_icon_00000135668455084750845290000015030311147981950897_);stroke:#000000;stroke-width:5.6604;" d="
	M15.3,43.6l9.4-9.4v-9.4h9.4l9.4-9.4h37.7l9.4,9.4h9.4v9.4l9.4,9.4v37.7l-9.4,9.4v9.4h-9.4l-9.4,9.4H43.6l-9.4-9.4h-9.4v-9.4
	l-9.4-9.4C15.3,81.4,15.3,43.6,15.3,43.6z"/>
<path id="Magnetism_kanji" d="M87.7,62c-2.6,6.2-6.1,13.3-10.6,21.3c2.9-0.3,5.4-0.7,7.5-1c-0.6-2.5-1.4-4.6-2.2-6.3l4.1-1.5
	c1.8,3.8,3.2,8.4,4.3,13.8L86,89.8c-0.2-1.7-0.4-2.9-0.7-3.8c-4,0.8-8,1.6-12,2.3c0.2,0.7,0.2,1.3,0.2,1.8l-4.6,0.8
	c0-1.2-0.2-2.3-0.5-3.5c-3.5,0.7-7.1,1.3-10.8,1.8c-0.6,1.3-1.2,1.3-1.7,0l-1-4h1.2c2.2-3.8,4.3-7.9,6.3-12.3
	c-2.2-2.7-4.7-4.9-7.5-6.8l1.9-4c0.5,0.3,0.9,0.7,1.2,1c2.6-5,4.3-9.4,5.1-13.3h-7.2V45h8.9c-1.3-3-2.9-5.3-4.8-7l3.9-3
	c1.8,1.2,3.5,3.6,5.3,7.3L65.8,45h8.9c1.4-3.7,2.6-7.3,3.6-10.8l5.1,2.3c1,0.8,0.7,1.3-0.7,1.5c-1,2.2-2.1,4.5-3.4,7h11.1v4.8h-9.9
	l3.6,1.8c0.6,0.7,0.4,1.1-0.7,1.3c-1.3,3.3-3.3,7.7-6,13c0.8,0.7,1.8,1.5,2.9,2.5c1.6-3.5,3-6.8,4.1-9.8l4.1,2.3
	C89,61.4,88.8,61.8,87.7,62z M71.5,62.5c-2.4,5.7-6,12.9-10.8,21.8c2.2-0.2,4.5-0.4,6.7-0.8c-0.6-2.5-1.3-4.6-1.9-6.3l4.1-1.5
	c1,2.2,1.8,4.8,2.4,7.8h1c1.9-3.5,3.7-7,5.3-10.5c-1.8-2-3.9-3.9-6.3-5.8c2.9-5.3,5.4-11.2,7.5-17.5H64.5l3.4,1.8
	c0.6,0.7,0.4,1.1-0.7,1.3c-0.8,2.7-2.7,6.8-5.8,12.3c1,0.8,1.9,1.8,2.9,2.8c1.3-3,2.6-6,3.9-9l4.1,2.5
	C72.9,61.9,72.7,62.3,71.5,62.5z M44.6,90.3h-4.1V66.5c-0.8,1.8-2,3.6-3.6,5.3l-2.6-4.3C39,62.2,41.8,54,42.6,43h-5.8v-4.8h18.1V43
	H47c-0.3,5.5-1.1,10.4-2.4,14.5h9.2v30.1h-4.1V83h-5.1V90.3z M49.6,62.2h-5.1v16h5.1V62.2z"/>
</svg>
