<?xml version="1.0" encoding="utf-8"?>
<!-- Generator: Adobe Illustrator 26.3.1, SVG Export Plug-In . SVG Version: 6.00 Build 0)  -->
<svg version="1.1"
	 id="svg3347" xmlns:inkscape="http://www.inkscape.org/namespaces/inkscape" xmlns:sodipodi="http://sodipodi.sourceforge.net/DTD/sodipodi-0.dtd" xmlns:svg="http://www.w3.org/2000/svg" sodipodi:version="0.32" inkscape:version="0.46" sodipodi:docname="Nature Icon Dark.svg" inkscape:output_extension="org.inkscape.output.svg.inkscape"
	 xmlns="http://www.w3.org/2000/svg" xmlns:xlink="http://www.w3.org/1999/xlink" x="0px" y="0px" viewBox="0 0 125 125"
	 style="enable-background:new 0 0 125 125;" xml:space="preserve">
<style type="text/css">
	
		.st0{fill-rule:evenodd;clip-rule:evenodd;fill:url(#Dark_icon_00000108999735426537500720000013178343793836846240_);stroke:#000000;stroke-width:5.6604;}
</style>
<sodipodi:namedview  bordercolor="#666666" borderopacity="1.0" gridtolerance="10.0" guidetolerance="10.0" id="base" inkscape:current-layer="svg3347" inkscape:cx="49.999998" inkscape:cy="50.000002" inkscape:object-nodes="true" inkscape:pageopacity="0.0" inkscape:pageshadow="2" inkscape:snap-center="true" inkscape:window-height="930" inkscape:window-width="1280" inkscape:window-x="-4" inkscape:window-y="-4" inkscape:zoom="0.2" objecttolerance="50" pagecolor="#ffffff" showgrid="false">
	</sodipodi:namedview>
<radialGradient id="Dark_icon_00000031208383511652926840000016672598223646411709_" cx="62.5" cy="64.5" r="50" gradientTransform="matrix(1 0 0 -1 0 127)" gradientUnits="userSpaceOnUse">
	<stop  offset="0" style="stop-color:#8300F4"/>
	<stop  offset="1" style="stop-color:#1E0038"/>
</radialGradient>
<path id="Dark_icon" sodipodi:nodetypes="ccccccccccccccccccccc" style="fill-rule:evenodd;clip-rule:evenodd;fill:url(#Dark_icon_00000031208383511652926840000016672598223646411709_);stroke:#000000;stroke-width:5.6604;" d="
	M15.3,43.6l9.4-9.4v-9.4h9.4l9.4-9.4h37.7l9.4,9.4h9.4v9.4l9.4,9.4v37.7l-9.4,9.4v9.4h-9.4l-9.4,9.4H43.6l-9.4-9.4h-9.4v-9.4
	l-9.4-9.4V43.6z"/>
<path id="Dark_kanji" d="M57.8,81.5c-7.3,5-13.6,8.1-19,9.3l-2-5.7c6.6-1.7,12.7-4.7,18.3-8.8H34.2v-4.9h25.4v-5.2h-9.1v1.8h-5.1V43
	h34v24.6h-5.1v-1.3h-8.9v5.2h25.4v4.9H71.3c4.1,2.9,10.2,5.6,18.5,8l-2.5,5.4c-7.1-2.1-13.7-5.3-19.8-9.6l3-3.9h-15l3.3,4.4
	C58.8,81.6,58.5,81.8,57.8,81.5L57.8,81.5z M36.5,34.2h51.8v12.7h-5.1v-7.8H41.6v9h-5.1V34.2z M74.3,47.9H50.4v4.4h23.9V47.9z
	 M74.3,56.4H50.4v4.9h23.9V56.4z"/>
</svg>
