<?xml version="1.0" encoding="utf-8"?>
<!-- Generator: Adobe Illustrator 26.3.1, SVG Export Plug-In . SVG Version: 6.00 Build 0)  -->
<svg version="1.1"
	 id="svg3347" xmlns:inkscape="http://www.inkscape.org/namespaces/inkscape" xmlns:sodipodi="http://sodipodi.sourceforge.net/DTD/sodipodi-0.dtd" xmlns:svg="http://www.w3.org/2000/svg" sodipodi:version="0.32" inkscape:version="0.46" sodipodi:docname="Nature Icon Wood.svg" inkscape:output_extension="org.inkscape.output.svg.inkscape"
	 xmlns="http://www.w3.org/2000/svg" xmlns:xlink="http://www.w3.org/1999/xlink" x="0px" y="0px" viewBox="0 0 125 125"
	 style="enable-background:new 0 0 125 125;" xml:space="preserve">
<style type="text/css">
	
		.st0{fill-rule:evenodd;clip-rule:evenodd;fill:url(#Wood_icon_00000164485217361953029850000004954001074263179957_);stroke:#000000;stroke-width:5.6604;}
</style>
<sodipodi:namedview  bordercolor="#666666" borderopacity="1.0" gridtolerance="10.0" guidetolerance="10.0" id="base" inkscape:current-layer="svg3347" inkscape:cx="50.000005" inkscape:cy="50.000002" inkscape:pageopacity="0.0" inkscape:pageshadow="2" inkscape:window-height="930" inkscape:window-width="1280" inkscape:window-x="-4" inkscape:window-y="-4" inkscape:zoom="7.1699998" objecttolerance="10.0" pagecolor="#ffffff" showgrid="false">
	</sodipodi:namedview>
<radialGradient id="Wood_icon_00000160152725661349149350000006325826427190309296_" cx="62.5" cy="64.5" r="50" gradientTransform="matrix(1 0 0 -1 0 127)" gradientUnits="userSpaceOnUse">
	<stop  offset="0" style="stop-color:#734A12"/>
	<stop  offset="1" style="stop-color:#358E20"/>
</radialGradient>
<path id="Wood_icon" sodipodi:nodetypes="ccccccccccccccccccccc" style="fill-rule:evenodd;clip-rule:evenodd;fill:url(#Wood_icon_00000160152725661349149350000006325826427190309296_);stroke:#000000;stroke-width:5.6604;" d="
	M15.3,43.6l9.4-9.4v-9.4h9.4l9.4-9.4h37.7l9.4,9.4h9.4v9.4l9.4,9.4v37.7l-9.4,9.4v9.4h-9.4l-9.4,9.4H43.6l-9.4-9.4h-9.4v-9.4
	l-9.4-9.4V43.6z"/>
<path id="Wood_kanji" d="M34.2,78.6c12-6.4,20.1-15.6,24.4-27.4H36.7v-5.6h22.9V34.2h4.7c1.3,0.2,1.4,0.7,0.2,1.5v9.9h23.7v5.6H65.6
	c3.7,10.7,12.1,19.5,25.2,26.4l-2.7,5.8c-10.1-5.6-18-13.4-23.4-23.4v30.7h-5v-30c-4.8,9-12.2,16.8-22.2,23.4L34.2,78.6L34.2,78.6z"
	/>
</svg>
