<?xml version="1.0" encoding="utf-8"?>
<!-- Generator: Adobe Illustrator 26.3.1, SVG Export Plug-In . SVG Version: 6.00 Build 0)  -->
<svg version="1.1"
	 id="svg3347" xmlns:inkscape="http://www.inkscape.org/namespaces/inkscape" xmlns:sodipodi="http://sodipodi.sourceforge.net/DTD/sodipodi-0.dtd" xmlns:svg="http://www.w3.org/2000/svg" sodipodi:version="0.32" inkscape:version="0.46" sodipodi:docname="Nature Icon Storm.svg" inkscape:output_extension="org.inkscape.output.svg.inkscape"
	 xmlns="http://www.w3.org/2000/svg" xmlns:xlink="http://www.w3.org/1999/xlink" x="0px" y="0px" viewBox="0 0 125 125"
	 style="enable-background:new 0 0 125 125;" xml:space="preserve">
<style type="text/css">
	
		.st0{fill-rule:evenodd;clip-rule:evenodd;fill:url(#Storm_icon_00000104692708778962883910000017645535197676955567_);stroke:#000000;stroke-width:5.6604;}
</style>
<sodipodi:namedview  bordercolor="#666666" borderopacity="1.0" gridtolerance="10.0" guidetolerance="10.0" id="base" inkscape:current-layer="svg3347" inkscape:cx="50.000001" inkscape:cy="50.000001" inkscape:object-nodes="true" inkscape:object-paths="false" inkscape:pageopacity="0.0" inkscape:pageshadow="2" inkscape:snap-center="true" inkscape:window-height="930" inkscape:window-width="1280" inkscape:window-x="-4" inkscape:window-y="-4" inkscape:zoom="7.1699998" objecttolerance="50" pagecolor="#ffffff" showgrid="false">
	</sodipodi:namedview>
<radialGradient id="Storm_icon_00000100343171065174528620000011740756191452299175_" cx="7.65" cy="-115.7122" r="26.5" gradientTransform="matrix(1.8868 0 0 -1.8868 48.0661 -155.8249)" gradientUnits="userSpaceOnUse">
	<stop  offset="0" style="stop-color:#7E8E99"/>
	<stop  offset="1" style="stop-color:#0F011B"/>
</radialGradient>
<path id="Storm_icon" sodipodi:nodetypes="ccccccccccccccccccccc" style="fill-rule:evenodd;clip-rule:evenodd;fill:url(#Storm_icon_00000100343171065174528620000011740756191452299175_);stroke:#000000;stroke-width:5.6604;" d="
	M15.3,43.6l9.4-9.4v-9.4h9.4l9.4-9.4h37.7l9.4,9.4h9.4v9.4l9.4,9.4v37.7l-9.4,9.4v9.4h-9.4l-9.4,9.4H43.6l-9.4-9.4h-9.4v-9.4
	l-9.4-9.4V43.6z"/>
<path id="Storm_kanji" d="M46,80.7l12.4-0.5v-6.9h-5.1v3.2h-4.1v-14h9.2v-3.2l-10,0.5l-0.7-3.4c9.6-0.3,17.6-1.1,24.1-2.5l1.5,3.9
	l-10.7,1.2v3.4h9v10.8h-9v6.4l6.1-0.2l-2.2-3l3.4-2c2.3,2.5,4.5,5.4,6.6,8.9l-4.1,2.2l-1.7-2.5l-22.4,2c-0.3,1.1-0.6,1.4-1,0.7
	L46,80.7z M90.2,75.3L89.7,78c-1.5,8.5-4.5,10.5-9,5.9c-3.2-3.3-4.9-8.8-4.9-16.5V51.9H45.3v17.5c0,6.6-2.6,12.8-7.8,18.7l-3.9-3.7
	c4.5-4.3,6.8-9.4,6.8-15.5V48h40.3v19.4c0,5.3,0.7,8.9,2.2,11.1c0.8,1.3,1.4,1.2,1.7-0.2l1-5.2L90.2,75.3z M67.4,70.4v-4.9h-4.9v4.9
	H67.4z M58.4,70.4v-4.9h-5.1v4.9H58.4z M81.2,34.2c1.3,0.2,1.4,0.7,0.2,1.5v8.9h-42V34.2H44c1.3,0.2,1.4,0.7,0.2,1.5v4.9h13.4v-9.1
	h4.6c1.3,0.2,1.4,0.7,0.2,1.5v7.6h14.1v-6.4H81.2L81.2,34.2z"/>
</svg>
