<?xml version="1.0" encoding="utf-8"?>
<!-- Generator: Adobe Illustrator 26.3.1, SVG Export Plug-In . SVG Version: 6.00 Build 0)  -->
<svg version="1.1"
	 id="svg3347" xmlns:inkscape="http://www.inkscape.org/namespaces/inkscape" xmlns:sodipodi="http://sodipodi.sourceforge.net/DTD/sodipodi-0.dtd" xmlns:svg="http://www.w3.org/2000/svg" sodipodi:version="0.32" inkscape:version="0.47 r22583" sodipodi:docname="Nature Icon Scorch.svg" inkscape:output_extension="org.inkscape.output.svg.inkscape"
	 xmlns="http://www.w3.org/2000/svg" xmlns:xlink="http://www.w3.org/1999/xlink" x="0px" y="0px" viewBox="0 0 125 125"
	 style="enable-background:new 0 0 125 125;" xml:space="preserve">
<style type="text/css">
	
		.st0{fill-rule:evenodd;clip-rule:evenodd;fill:url(#Scorch_icon_00000101096002973692110700000017340884987165990076_);stroke:#000000;stroke-width:5.6604;}
</style>
<defs>
	
		<inkscape:perspective  id="perspective13" inkscape:persp3d-origin="50 : 33.333333 : 1" inkscape:vp_x="0 : 50 : 1" inkscape:vp_y="0 : 1000 : 0" inkscape:vp_z="100 : 50 : 1" sodipodi:type="inkscape:persp3d">
		</inkscape:perspective>
	
		<inkscape:perspective  id="perspective2841" inkscape:persp3d-origin="283.48227 : 38.893702 : 1" inkscape:vp_x="0 : 58.340553 : 1" inkscape:vp_y="0 : 1000 : 0" inkscape:vp_z="566.96454 : 58.340553 : 1" sodipodi:type="inkscape:persp3d">
		</inkscape:perspective>
	
		<inkscape:perspective  id="perspective2857" inkscape:persp3d-origin="283.48227 : 38.893702 : 1" inkscape:vp_x="0 : 58.340553 : 1" inkscape:vp_y="0 : 1000 : 0" inkscape:vp_z="566.96454 : 58.340553 : 1" sodipodi:type="inkscape:persp3d">
		</inkscape:perspective>
	
		<inkscape:perspective  id="perspective2873" inkscape:persp3d-origin="283.48227 : 38.893702 : 1" inkscape:vp_x="0 : 58.340553 : 1" inkscape:vp_y="0 : 1000 : 0" inkscape:vp_z="566.96454 : 58.340553 : 1" sodipodi:type="inkscape:persp3d">
		</inkscape:perspective>
	
		<inkscape:perspective  id="perspective2889" inkscape:persp3d-origin="283.48227 : 38.893702 : 1" inkscape:vp_x="0 : 58.340553 : 1" inkscape:vp_y="0 : 1000 : 0" inkscape:vp_z="566.96454 : 58.340553 : 1" sodipodi:type="inkscape:persp3d">
		</inkscape:perspective>
	
		<inkscape:perspective  id="perspective2905" inkscape:persp3d-origin="283.48227 : 38.893702 : 1" inkscape:vp_x="0 : 58.340553 : 1" inkscape:vp_y="0 : 1000 : 0" inkscape:vp_z="566.96454 : 58.340553 : 1" sodipodi:type="inkscape:persp3d">
		</inkscape:perspective>
	
		<inkscape:perspective  id="perspective2919" inkscape:persp3d-origin="0.5 : 0.33333333 : 1" inkscape:vp_x="0 : 0.5 : 1" inkscape:vp_y="0 : 1000 : 0" inkscape:vp_z="1 : 0.5 : 1" sodipodi:type="inkscape:persp3d">
		</inkscape:perspective>
</defs>
<sodipodi:namedview  bordercolor="#666666" borderopacity="1.0" gridtolerance="10.0" guidetolerance="10.0" id="base" inkscape:current-layer="svg3347" inkscape:cx="169.49783" inkscape:cy="38.862067" inkscape:object-nodes="false" inkscape:object-paths="false" inkscape:pageopacity="0.0" inkscape:pageshadow="2" inkscape:snap-center="true" inkscape:snap-object-midpoints="true" inkscape:snap-smooth-nodes="false" inkscape:window-height="940" inkscape:window-maximized="1" inkscape:window-width="1280" inkscape:window-x="-8" inkscape:window-y="-8" inkscape:zoom="2.9772152" objecttolerance="50" pagecolor="#ffffff" showgrid="false">
	</sodipodi:namedview>
<radialGradient id="Scorch_icon_00000013871800433543043150000014146149844313985947_" cx="62.5" cy="64.5" r="50" gradientTransform="matrix(1 0 0 -1 -1.248779e-06 127)" gradientUnits="userSpaceOnUse">
	<stop  offset="0" style="stop-color:#FFFF64"/>
	<stop  offset="0.5" style="stop-color:#FF0000"/>
	<stop  offset="1" style="stop-color:#660000"/>
</radialGradient>
<path id="Scorch_icon" sodipodi:nodetypes="ccccccccccccccccccccc" style="fill-rule:evenodd;clip-rule:evenodd;fill:url(#Scorch_icon_00000013871800433543043150000014146149844313985947_);stroke:#000000;stroke-width:5.6604;" d="
	M15.3,43.6l9.4-9.4v-9.4h9.4l9.4-9.4h37.7l9.4,9.4h9.4v9.4l9.4,9.4v37.7l-9.4,9.4v9.4h-9.4l-9.4,9.4H43.6l-9.4-9.4h-9.4v-9.4
	l-9.4-9.4C15.3,81.4,15.3,43.6,15.3,43.6z"/>
<path id="Scorch_kanji" d="M49.9,34.4c1.4,0.2,1.5,0.7,0.3,1.5v13.4c1.5-1.3,3.4-3.4,5.7-6.2l4.1,3c0.9,1.2,0.4,1.7-1.3,1.5
	c-2.9,3.1-5.7,5.7-8.5,7.7v5.5c0,4-0.2,6.9-0.5,8.7c4.5,3.5,8.2,7.2,11.3,11.2l-3.6,5.2c-2.7-4-5.7-7.4-8.7-10.4
	c-1.4,5.3-4.8,10.4-10.3,15.4l-3.9-4.5c7-5.5,10.5-13.4,10.5-23.8V34.4L49.9,34.4z M41.9,48.3c0,6-0.9,11.5-2.6,16.6l-5.1-1.2
	c1.7-4.8,2.6-10.1,2.6-15.9L41.9,48.3z M70.7,35.7c1.7,0.7,1.6,1.2-0.3,1.7c-0.9,2.8-1.7,5.6-2.6,8.4h22.9l-1.5,31.8
	c-0.3,7.8-3.4,11.7-9.3,11.7h-6.4l-2.1-5.5h6.9c3.4,0,5.2-2.2,5.4-6.7l1.3-26.6H65.8c-2.2,4.5-5.1,8.5-8.5,12.2l-4.6-4
	c6.2-5.6,10.4-13.8,12.6-24.6L70.7,35.7z M79,62.3V67H60.2v-4.7H79z"/>
</svg>
