<?xml version="1.0" encoding="utf-8"?>
<!-- Generator: Adobe Illustrator 26.3.1, SVG Export Plug-In . SVG Version: 6.00 Build 0)  -->
<svg version="1.1"
	 id="svg3347" xmlns:inkscape="http://www.inkscape.org/namespaces/inkscape" xmlns:sodipodi="http://sodipodi.sourceforge.net/DTD/sodipodi-0.dtd" xmlns:svg="http://www.w3.org/2000/svg" sodipodi:version="0.32" inkscape:version="0.46" sodipodi:docname="Nature Icon Crystal.svg" inkscape:output_extension="org.inkscape.output.svg.inkscape"
	 xmlns="http://www.w3.org/2000/svg" xmlns:xlink="http://www.w3.org/1999/xlink" x="0px" y="0px" viewBox="0 0 125 125"
	 style="enable-background:new 0 0 125 125;" xml:space="preserve">
<style type="text/css">
	
		.st0{fill-rule:evenodd;clip-rule:evenodd;fill:url(#Crystal_icon_00000022524196267727230830000014624228537564693894_);stroke:#000000;stroke-width:5.6604;}
</style>
<sodipodi:namedview  bordercolor="#666666" borderopacity="1.0" gridtolerance="10.0" guidetolerance="10.0" id="base" inkscape:current-layer="svg3347" inkscape:cx="50.000005" inkscape:cy="49.999999" inkscape:pageopacity="0.0" inkscape:pageshadow="2" inkscape:window-height="930" inkscape:window-width="1280" inkscape:window-x="-4" inkscape:window-y="-4" inkscape:zoom="7.1699998" objecttolerance="10.0" pagecolor="#ffffff" showgrid="false">
	</sodipodi:namedview>
<radialGradient id="Crystal_icon_00000092445354760318438840000018099185268448769185_" cx="62.65" cy="-60.7122" r="26.5" gradientTransform="matrix(1.8868 0 0 -1.8868 -55.7075 -52.0512)" gradientUnits="userSpaceOnUse">
	<stop  offset="0" style="stop-color:#86C88E"/>
	<stop  offset="1" style="stop-color:#E26CCD"/>
</radialGradient>
<path id="Crystal_icon" sodipodi:nodetypes="ccccccccccccccccccccc" style="fill-rule:evenodd;clip-rule:evenodd;fill:url(#Crystal_icon_00000092445354760318438840000018099185268448769185_);stroke:#000000;stroke-width:5.6604;" d="
	M15.3,43.6l9.4-9.4v-9.4h9.4l9.4-9.4h37.7l9.4,9.4h9.4v9.4l9.4,9.4v37.7l-9.4,9.4v9.4h-9.4l-9.4,9.4H43.6l-9.4-9.4h-9.4v-9.4
	l-9.4-9.4V43.6z"/>
<path id="Crystal_kanji" d="M39.7,90.8h-5.5V62h25.3v28H54v-3.1H39.7V90.8z M43.8,34.2h36.8v23.9H43.8V34.2z M54,66.1H39.7v6.2H54
	V66.1z M39.7,76.4v6.4H54v-6.4H39.7z M75.1,38.3H49.3v5.9h25.8V38.3z M49.3,48.3V54h25.8v-5.7H49.3z M70.2,66.1v6.2h15.1v-6.2H70.2z
	 M70.2,76.4v6.4h15.1v-6.4H70.2z M64.7,90.8V62h26.1v28h-5.5v-3.1H70.2v3.9H64.7z"/>
</svg>
