<?xml version="1.0" encoding="utf-8"?>
<!-- Generator: Adobe Illustrator 26.3.1, SVG Export Plug-In . SVG Version: 6.00 Build 0)  -->
<svg version="1.1"
	 id="svg3347" xmlns:inkscape="http://www.inkscape.org/namespaces/inkscape" xmlns:sodipodi="http://sodipodi.sourceforge.net/DTD/sodipodi-0.dtd" xmlns:svg="http://www.w3.org/2000/svg" sodipodi:version="0.32" inkscape:version="0.91 r13725" sodipodi:docname="Símbolo_Taiton.svg" inkscape:output_extension="org.inkscape.output.svg.inkscape" xmlns:dc="http://purl.org/dc/elements/1.1/" xmlns:rdf="http://www.w3.org/1999/02/22-rdf-syntax-ns#" xmlns:cc="http://creativecommons.org/ns#"
	 xmlns="http://www.w3.org/2000/svg" xmlns:xlink="http://www.w3.org/1999/xlink" x="0px" y="0px" viewBox="0 0 125 125"
	 style="enable-background:new 0 0 125 125;" xml:space="preserve">
<style type="text/css">
	
		.st0{fill-rule:evenodd;clip-rule:evenodd;fill:url(#Taiton_icon_00000149349400358104065300000006806711454857398917_);stroke:#000000;stroke-width:5.6604;}
</style>
<sodipodi:namedview  bordercolor="#666666" borderopacity="1.0" gridtolerance="10.0" guidetolerance="10.0" id="base" inkscape:current-layer="svg3347" inkscape:cx="35.880001" inkscape:cy="49.007414" inkscape:pageopacity="0.0" inkscape:pageshadow="2" inkscape:window-height="737" inkscape:window-maximized="1" inkscape:window-width="1280" inkscape:window-x="-8" inkscape:window-y="-8" inkscape:zoom="1.0074671" objecttolerance="10.0" pagecolor="#ffffff" showgrid="false">
	</sodipodi:namedview>
<radialGradient id="Taiton_icon_00000026854295526336577110000013836267050051699344_" cx="62.5" cy="64.5" r="50" gradientTransform="matrix(1 0 0 -1 0 127)" gradientUnits="userSpaceOnUse">
	<stop  offset="0" style="stop-color:#DBFFFF;stop-opacity:0.3839"/>
	<stop  offset="0.5" style="stop-color:#83C8C6;stop-opacity:0.6902"/>
	<stop  offset="1" style="stop-color:#2B928D"/>
</radialGradient>
<path id="Taiton_icon" sodipodi:nodetypes="ccccccccccccccccccccc" inkscape:connector-curvature="0" style="fill-rule:evenodd;clip-rule:evenodd;fill:url(#Taiton_icon_00000026854295526336577110000013836267050051699344_);stroke:#000000;stroke-width:5.6604;" d="
	M15.3,43.6l9.4-9.4v-9.4h9.4l9.4-9.4h37.7l9.4,9.4h9.4v9.4l9.4,9.4v37.7l-9.4,9.4v9.4h-9.4l-9.4,9.4H43.6l-9.4-9.4h-9.4v-9.4
	l-9.4-9.4C15.3,81.4,15.3,43.6,15.3,43.6z"/>
<g id="Taiton_kanji" transform="matrix(0.01553541,0,0,-0.01528038,19.569644,77.994549)">
	<path id="path3039" inkscape:connector-curvature="0" d="M3454.7,2214l-125-547l-163-3c-149-2-163-4-158-20c3-9,19-71,36-137
		c32-121,51-165,72-165c6,0,25,15,42,33l31,34l512,38c282,20,518,35,526,32c7-3,28-46,47-96s38-91,44-91c7,0,216,112,234,126
		c15,11-122,329-209,489c-39,72-104,180-144,242l-74,112l-88-40c-48-23-100-47-115-55l-27-14l55-85c73-114,184-338,173-349
		c-5-5-541-37-545-33c-2,2,52,199,120,438c103,358,129,437,148,452c55,42,68,57,68,75c0,25-21,33-180,72c-69,17-132,33-140,35
		C3581.7,2761,3556.7,2664,3454.7,2214z"/>
	<path id="path3041" inkscape:connector-curvature="0" d="M1124.6,1390c0-1347,0-1332-55-1523c-14-49-49-137-77-194l-51-104l74-149
		l74-149l28,32c44,54,142,257,181,378c20,62,46,163,58,224c21,110,22,133,25,1300l4,1187l652-2l652-3l6-925c4-803,7-938,22-1023
		c96-561,343-884,790-1032c167-55,273-69,512-70c173,0,221,3,274,18c126,36,204,93,240,176c19,46,60,266,50,275c-2,2-60,16-129,30
		c-69,15-132,29-141,32c-14,4-18-8-24-77c-6-70-11-85-36-114c-56-63-194-86-394-66c-191,19-357,74-481,159c-75,50-199,181-242,254
		c-79,134-136,306-169,508c-14,92-17,232-20,1103l-4,997h-910h-909V1390z"/>
	<path id="path3043" inkscape:connector-curvature="0" d="M2414.7,2131c-156-34-533-84-856-114l-72-7l35-106c20-59,38-110,42-114
		c3-4,76,0,161,7c85,8,165,15,178,15h22l-2-197l-3-198l-187-3l-188-2V862V312h110h110v80v80h80h80V133v-339l-72-6
		c-40-3-154-11-253-17s-182-12-184-14c-7-8,62-270,81-308c24-49,52-49,75-2c9,20,26,38,38,41c81,19,901,152,906,146
		c4-4,19-55,34-114c16-60,31-108,36-108c9,0,232,69,236,74c6,6-69,279-107,389c-56,163-176,397-203,397c-8,0-199-79-205-85
		c-2-2,19-47,46-101c62-125,89-204,73-214c-7-4-65-15-129-24c-64-10-127-20-139-23l-23-5v326v326h205h205v470v470l-202,2l-203,3
		l-3,206l-2,206l137,19c126,17,218,21,283,12c42-5,40,12-36,275c-3,9-8,16-12,16C2502.7,2150,2461.7,2141,2414.7,2131z M1924.7,942
		V712h-80h-80v230v230h80h80V942z M2329.7,942V717l-97-3l-98-3v231v231l98-3l97-3V942z"/>
	<path id="path3045" inkscape:connector-curvature="0" d="M3254.7,532V-58h130h130v85v85l298-2l297-3l3-67l3-68h129h130v575v575
		h-560h-560V532z M4112.7,615l-3-258l-297-3l-298-2v260v260h300h300L4112.7,615z"/>
</g>
</svg>
