<?xml version="1.0" encoding="utf-8"?>
<!-- Generator: Adobe Illustrator 26.3.1, SVG Export Plug-In . SVG Version: 6.00 Build 0)  -->
<svg version="1.1"
	 id="svg3347" xmlns:inkscape="http://www.inkscape.org/namespaces/inkscape" xmlns:sodipodi="http://sodipodi.sourceforge.net/DTD/sodipodi-0.dtd" xmlns:svg="http://www.w3.org/2000/svg" sodipodi:version="0.32" inkscape:version="0.46" sodipodi:docname="Nature Icon Lava.svg" inkscape:output_extension="org.inkscape.output.svg.inkscape"
	 xmlns="http://www.w3.org/2000/svg" xmlns:xlink="http://www.w3.org/1999/xlink" x="0px" y="0px" viewBox="0 0 125 125"
	 style="enable-background:new 0 0 125 125;" xml:space="preserve">
<style type="text/css">
	
		.st0{fill-rule:evenodd;clip-rule:evenodd;fill:url(#Lava_icon_00000100374798862377726300000008186742896788475276_);stroke:#000000;stroke-width:5.6604;}
</style>
<sodipodi:namedview  bordercolor="#666666" borderopacity="1.0" gridtolerance="10.0" guidetolerance="10.0" id="base" inkscape:current-layer="svg3347" inkscape:cx="49.999998" inkscape:cy="50.000002" inkscape:pageopacity="0.0" inkscape:pageshadow="2" inkscape:window-height="930" inkscape:window-width="1280" inkscape:window-x="-4" inkscape:window-y="-4" inkscape:zoom="7.1699998" objecttolerance="10.0" pagecolor="#ffffff" showgrid="false">
	</sodipodi:namedview>
<radialGradient id="Lava_icon_00000173155790878878281010000003948396596376516527_" cx="7.65" cy="-115.7122" r="26.5" gradientTransform="matrix(1.8868 0 0 -1.8868 48.0661 -155.8249)" gradientUnits="userSpaceOnUse">
	<stop  offset="0" style="stop-color:#FF0000"/>
	<stop  offset="1" style="stop-color:#734A12"/>
</radialGradient>
<path id="Lava_icon" sodipodi:nodetypes="ccccccccccccccccccccc" style="fill-rule:evenodd;clip-rule:evenodd;fill:url(#Lava_icon_00000173155790878878281010000003948396596376516527_);stroke:#000000;stroke-width:5.6604;" d="
	M15.3,43.6l9.4-9.4v-9.4h9.4l9.4-9.4h37.7l9.4,9.4h9.4v9.4l9.4,9.4v37.7l-9.4,9.4v9.4h-9.4l-9.4,9.4H43.6l-9.4-9.4h-9.4v-9.4
	l-9.4-9.4V43.6z"/>
<path id="Lava_kanji" d="M52.3,71.4c7.9-3,13.6-8.8,17.1-17.5l5.3,0.7c0.6,0.7,0.4,1.1-0.7,1.2c3.9,6.6,9.5,11.6,16.9,15l-1.9,4.9
	c-1.9-0.8-3.9-2-5.8-3.4v17.5H79v-2.2H64.5v3.2h-4.1V72.3c-1.4,1.3-3.5,2.5-6,3.7L52.3,71.4z M55.2,58.8c4-3.3,6.8-6.8,8.4-10.6
	l4.3,2.7c0.6,0.8,0.3,1.1-1,0.7c-1.9,3.9-4.8,7.5-8.7,10.8L55.2,58.8z M85.7,61.3c-4.3-2.3-8-6-11.1-11.1l3.6-2.2
	c2.6,3.8,5.9,6.8,10.1,9.1L85.7,61.3z M40,49.2c0,6.1-0.4,11.8-1.2,17.2l-4.6-2c0.6-5.4,1-11.2,1.2-17.2l5.1,0.5
	C41.1,48.2,40.9,48.7,40,49.2L40,49.2z M42.6,35.2h4.6c1.3,0.2,1.4,0.7,0.2,1.5v14.3l4.1-4.9l3.4,3v-7.9h14v-6.9h4.6
	c1.3,0.2,1.4,0.7,0.2,1.5v5.4h14.7v11.1h-4.1V45H59v7.6h-4.1v-2.7l-7.5,5.9v14.3c3.2,2.8,6.3,6.3,9.4,10.6l-3.6,4.2
	c-1.4-3-3.8-6.2-7-9.6c-1.8,6.6-4.3,11.6-7.7,15.3l-3.4-4.4c5-5.6,7.5-13,7.5-22.1V35.2z M81.2,71.1c-3.7-2.6-6.9-6.4-9.6-11.3
	c-1.9,4.4-5.1,8.2-9.6,11.3H81.2L81.2,71.1z M79,83.7v-8.6H64.5v8.6H79z"/>
</svg>
