<?xml version="1.0" encoding="utf-8"?>
<!-- Generator: Adobe Illustrator 26.3.1, SVG Export Plug-In . SVG Version: 6.00 Build 0)  -->
<svg version="1.1" id="Layer_1" xmlns="http://www.w3.org/2000/svg" xmlns:xlink="http://www.w3.org/1999/xlink" x="0px" y="0px"
	 viewBox="0 0 125 125" style="enable-background:new 0 0 125 125;" xml:space="preserve">
<style type="text/css">
	.st0{fill:#EAEAEA;}
</style>
<g>
	<path id="svg_2" class="st0" d="M32.8,20.5c-4.3,1.7-11.7,11.1-15.3,19.4c-1.8,4.1-3.2,9-3.9,13.5c-2.5,15.2,1.5,31,10.8,43.1
		c2.2,2.9,6.8,7.4,8.1,8c1.9,0.8,3.4,0.5,4.4-1c1-1.4,0.6-2.4-2.6-5.8c-1.4-1.6-3.3-3.8-4.2-4.9c-1.8-2.3-5.2-7.3-5.2-7.6
		c0-0.2,21.5-8.3,22.1-8.3c0.2,0,0.5,0.3,0.8,0.6l0.5,0.6v3.8c0,4.4,0.2,5.3,1.4,7.9c1.1,2.2,3.7,5,5.9,6.1c2.7,1.4,3.7,1.6,6.6,1.6
		s3.9-0.3,6.6-1.6c2.1-1.1,4.8-3.8,5.9-6.1c1.3-2.6,1.4-3.5,1.4-7.9v-3.8l0.5-0.6c0.3-0.3,0.7-0.6,0.8-0.6c0.6,0,22.1,8.1,22.1,8.3
		c0,0.3-3.4,5.3-5.2,7.6c-0.9,1.1-2.7,3.3-4.2,4.9c-3.1,3.4-3.5,4.4-2.5,5.8c1,1.5,2.5,1.9,4.4,1c1.3-0.6,5.9-5.1,8.1-8
		c9.3-12.1,13.3-27.9,10.8-43.1c-1.3-7.7-4.1-15.2-8.2-21.4c-4.8-7.3-9.7-11.9-12.8-11.9c-1.7,0-2.9,1.1-2.9,2.7
		c0,1.5,0.6,2.4,3.5,5.2c2.7,2.7,4.9,5.4,6.8,8.5c1.2,2,2.6,4.7,2.5,4.8c-0.1,0-14,6.2-20.1,8.8l-0.6,0.3L78,48.6L76.6,47v-3.7
		c-0.1-4.2-0.3-5.7-1.4-7.9c-1.4-2.9-3.7-5.1-6.8-6.5c-2.1-1-3.4-1.3-5.8-1.3s-3.7,0.3-5.8,1.3c-3.1,1.4-5.4,3.6-6.8,6.5
		c-1.1,2.2-1.3,3.7-1.4,7.9V47L47,48.6l-1.4,1.7L44.9,50c-6.1-2.7-20.1-8.8-20.1-8.8c-0.1-0.1,1.3-2.8,2.5-4.8
		c1.9-3.1,4-5.8,6.8-8.5c2.8-2.8,3.5-3.8,3.5-5.2C37.5,20.5,35.4,19.5,32.8,20.5L32.8,20.5z M65.6,35.1c1.4,0.6,2.8,2,3.4,3.3
		c0.6,1.2,1,3.2,0.8,4.2l-0.1,0.6l-0.9-0.5c-2.9-1.5-9.6-1.5-12.6,0l-0.9,0.5l-0.1-0.6c-0.2-0.9,0.2-3,0.7-4
		c0.9-1.8,2.1-2.9,3.9-3.7C61.4,34.3,64,34.3,65.6,35.1z M30.8,51.6c12.7,5.3,11.6,4.8,11.6,5.3s-0.5,3-0.6,3.1c0,0-5.1,0-11.1,0
		l-11.1-0.1l0.1-1.1c0.2-2.5,1.3-7.4,2-9.7c0.3-0.9,0.4-1,0.8-0.9C22.7,48.3,26.4,49.8,30.8,51.6z M66.5,48.7c2.8,0.8,4.8,2,6.8,4.1
		c4.1,4.3,5.1,10.5,2.5,16c-1.8,3.8-5.1,6.5-9.4,7.9c-1.7,0.5-5.9,0.5-7.6,0c-6.2-1.9-10.2-6.6-10.8-12.9c-0.3-2.5,0.5-6,1.9-8.4
		c0.8-1.3,2.9-3.6,4.1-4.5c1.8-1.2,4.8-2.4,6.7-2.6C62.1,48.1,65.1,48.3,66.5,48.7z M103.4,49.1c0.7,2.3,1.8,7.2,2,9.7l0.1,1.1
		L94.4,60c-6.1,0-11.1,0-11.1,0c-0.1-0.1-0.6-2.5-0.6-3.1c0-0.4,0.2-0.6,1.4-1.1c3-1.3,16.6-7,17.6-7.3c0.6-0.2,1.1-0.4,1.2-0.4
		C103,48.1,103.2,48.5,103.4,49.1L103.4,49.1z M42.3,67.6c0.9,2,1.3,3.6,1,3.9c-0.1,0.2-3.9,1.5-8.5,3c-12.8,4.2-12,3.9-12.3,3.6
		c-0.6-0.7-2.3-7.2-2.7-10.2L19.7,67h9.1c5,0,10-0.1,11.1-0.1l2-0.1L42.3,67.6z M96.8,67h8.5l-0.1,0.8c-0.5,3-2.2,9.5-2.7,10.3
		c-0.3,0.3,0.4,0.6-12.3-3.6c-4.5-1.5-8.3-2.8-8.5-3c-0.2-0.3,0.2-1.8,1-3.9l0.4-0.9l2.7,0.1C87.2,66.9,92.2,67,96.8,67z M56.2,82.2
		c1.3,0.6,4.2,1.1,6.3,1.1s5-0.5,6.3-1.1c0.5-0.2,0.9-0.3,1-0.3c0.3,0.3,0,2.7-0.4,3.7c-0.6,1.6-2.2,3.3-3.8,4.1
		c-1.1,0.5-1.5,0.6-3.1,0.6s-2-0.1-3-0.6c-2.2-1-3.9-3.2-4.3-5.7c-0.2-0.9-0.1-2.3,0.1-2.3C55.3,81.8,55.7,82,56.2,82.2L56.2,82.2z"
		/>
</g>
</svg>
