<?xml version="1.0" encoding="utf-8"?>
<!-- Generator: Adobe Illustrator 26.3.1, SVG Export Plug-In . SVG Version: 6.00 Build 0)  -->
<svg version="1.1"
	 id="svg2" xmlns:inkscape="http://www.inkscape.org/namespaces/inkscape" xmlns:sodipodi="http://sodipodi.sourceforge.net/DTD/sodipodi-0.dtd" xmlns:svg="http://www.w3.org/2000/svg" inkscape:version="0.91 r13725" sodipodi:docname="Hatake.svg" xmlns:dc="http://purl.org/dc/elements/1.1/" xmlns:rdf="http://www.w3.org/1999/02/22-rdf-syntax-ns#" xmlns:cc="http://creativecommons.org/ns#"
	 xmlns="http://www.w3.org/2000/svg" xmlns:xlink="http://www.w3.org/1999/xlink" x="0px" y="0px" viewBox="0 0 125 125"
	 style="enable-background:new 0 0 125 125;" xml:space="preserve">
<sodipodi:namedview  bordercolor="#666666" borderopacity="1" gridtolerance="10" guidetolerance="10" id="namedview11" inkscape:current-layer="g6" inkscape:cx="50.000003" inkscape:cy="50" inkscape:pageopacity="0" inkscape:pageshadow="2" inkscape:window-height="737" inkscape:window-maximized="1" inkscape:window-width="1280" inkscape:window-x="-8" inkscape:window-y="-8" inkscape:zoom="5.4199228" objecttolerance="10" pagecolor="#ffffff" showgrid="false">
	</sodipodi:namedview>
<g id="g6">
	<path id="svg_2" sodipodi:nodetypes="cccccccccccccccccccccccccccccccccccccccccccccccccc" inkscape:connector-curvature="0" d="
		M13.6,62.5l49,49.1l48.9-49l-48.6-49L13.6,62.5z M73.5,32.5L62.7,43.4L51.8,32.5l10.8-10.8L73.5,32.5z M47.6,58.4L36.7,47.5
		l10.8-10.8l10.9,10.9L47.6,58.4z M88.4,47.5L77.6,58.3L66.7,47.5l10.8-10.8L88.4,47.5z M32.6,73.4L21.7,62.5l10.8-10.8l10.9,10.9
		L32.6,73.4z M62.6,73.4L51.7,62.5l10.8-10.8l10.9,10.9L62.6,73.4z M103.4,62.5c-3.6,3.6-7.2,7.2-10.8,10.8
		c-3.6-3.6-7.2-7.2-10.8-10.8c3.6-3.6,7.2-7.3,10.8-10.8C96.4,55.4,99.5,58.6,103.4,62.5z M47.6,88.4L36.7,77.5l10.8-10.8l10.9,10.9
		L47.6,88.4z M77.5,88.3L66.7,77.5l10.8-10.8l10.8,10.8L77.5,88.3z M62.5,103.3L51.7,92.5l10.8-10.8l10.8,10.8L62.5,103.3z"/>
</g>
</svg>
