<?xml version="1.0" encoding="utf-8"?>
<!-- Generator: Adobe Illustrator 26.3.1, SVG Export Plug-In . SVG Version: 6.00 Build 0)  -->
<svg version="1.1"
	 id="svg30" xmlns:inkscape="http://www.inkscape.org/namespaces/inkscape" xmlns:sodipodi="http://sodipodi.sourceforge.net/DTD/sodipodi-0.dtd" xmlns:svg="http://www.w3.org/2000/svg" inkscape:version="1.0.2 (e86c870879, 2021-01-15)" sodipodi:docname="Hy≈´ga_Symbol.svg" xmlns:dc="http://purl.org/dc/elements/1.1/" xmlns:rdf="http://www.w3.org/1999/02/22-rdf-syntax-ns#" xmlns:cc="http://creativecommons.org/ns#"
	 xmlns="http://www.w3.org/2000/svg" xmlns:xlink="http://www.w3.org/1999/xlink" x="0px" y="0px" viewBox="0 0 125 125"
	 style="enable-background:new 0 0 125 125;" xml:space="preserve">
<style type="text/css">
	.st0{fill:#FFD217;}
</style>
<sodipodi:namedview  bordercolor="#666666" borderopacity="1" gridtolerance="10" guidetolerance="10" id="namedview32" inkscape:current-layer="svg30" inkscape:cx="2.5492399" inkscape:cy="57.133306" inkscape:pageopacity="0" inkscape:pageshadow="2" inkscape:window-height="705" inkscape:window-maximized="1" inkscape:window-width="1360" inkscape:window-x="-8" inkscape:window-y="-8" inkscape:zoom="2.8284271" objecttolerance="10" pagecolor="#ffffff" showgrid="false">
	</sodipodi:namedview>
<path id="svg_2" sodipodi:nodetypes="ccscccccccccccccccccccccsccccccscsccccccccccccccc" class="st0" d="M56.5,30.6
	c1,2.2,1.8,4.6,2,5.5c0.7,2.9,0.9,4.4,0.9,6.3c0,1.8-0.1,2.3-0.5,3.3c-0.8,2-1.7,3.2-4,5.5c-2.8,2.8-3.6,3.8-4.6,5.5
	c-1.5,2.8-2.2,5.6-2.1,9c0.3,3.4,1.2,6.2,3.8,9c2.2,1.9,4,2.8,7.1,3.6c2.2,0.5,5.5,0.6,7.5,0.1c2.8-0.6,5.4-2.1,7-4
	c2.6-3.3,4-8.5,2.8-12.1c-0.3-0.8-0.8-1.8-1.1-2.2c-0.8-1.1-2.6-2.5-3.8-3l-1-0.4V53c-0.1-2.3-0.2-3.9-0.6-5.9c-0.8-2.8-3-7-4.9-9.4
	s-4.9-5.1-7-6.3C57.1,30.9,56.5,30.6,56.5,30.6z M62.8,39.9c0.2,0,0.6,0.6,1.1,1.5c1.5,2.5,2.4,4.9,2.8,7.8c0.3,1.5,0.3,6.7,0.1,7.1
	c0,0-0.1,0.1-0.6,0.2c-1.4,0.3-3,0.7-4.3,1.4c-1.5,0.8-3.1,2.4-3.8,3.5c-1,1.9-0.9,4.3,0.4,6.1c1.4,2,3.1,3,6.1,2.8
	c1.7-0.3,2.8-1,3.5-2.1c0.5-1,0.6-1.8,0.5-2.7c-0.2-1.7-0.6-1.8-0.6-1.8c0,0.2-0.4,0.9-0.7,1.5c-0.8,1.5-1.6,2.1-3,2.1
	c-1.7,0-2.8-0.8-3.3-2.4c-0.4-1.3,1.2-3.5,3.3-4.5c1.3-0.6,3.4-0.9,4.4-0.7c1.8,0.5,3.4,1.9,4.1,3.8c1.3,3.4-0.8,8.9-4.1,11
	c-2.6,1.6-5.8,2-9.2,1c-3.3-0.9-5.5-2.5-6.8-5.1c-1.6-3-1.5-6.5,0.1-10.4c1-2.4,1.9-3.7,5-6.6c1-1,2.1-2.1,2.4-2.5
	c0.9-1.1,2-3.3,2.3-4.7c0.3-1.3,0.5-5.1,0.3-5.9C62.8,40,62.8,39.9,62.8,39.9L62.8,39.9z"/>
<path id="path49" sodipodi:nodetypes="cssccsscsssccccccssscccc" class="st0" d="M13.3,26.3c-0.4-1.5,0.7-2.7,2.3-2.4
	c0.9,0.1,0.7-0.1,6.5,8.8c1.9,3,3.6,5.5,3.7,5.6s0.9-0.4,1.7-1.2C36,30,45.7,26,56.9,25.1C72,23.9,86,28.5,96.7,38.2l1.6,1.4
	l0.4-0.6c0.2-0.3,1.9-3,3.8-5.8c1.9-2.9,3.8-5.8,4.2-6.5c0.5-0.7,1-1.6,1.3-2c1.1-1.7,3.8-0.8,3.8,1.2c0,0.6-0.2,1.1-1.2,2.5
	c-48.1,72.9,0,0-48.1,72.9C13.3,26.3,62.5,101.2,13.3,26.3z M96.1,43L95,41.9c-10.1-9.4-25.2-14.5-38.3-13
	C46.8,30,37.5,34,29.9,40.2l-1.7,1.4l0.7,1.1c33.7,51.2,0,0,33.7,51.2C96.1,43,62.6,94,96.1,43z"/>
</svg>
