<?xml version="1.0" encoding="utf-8"?>
<!-- Generator: Adobe Illustrator 26.3.1, SVG Export Plug-In . SVG Version: 6.00 Build 0)  -->
<svg version="1.1"
	 id="svg2" xmlns:inkscape="http://www.inkscape.org/namespaces/inkscape" xmlns:sodipodi="http://sodipodi.sourceforge.net/DTD/sodipodi-0.dtd" xmlns:svg="http://www.w3.org/2000/svg" inkscape:version="0.47 r22583" sodipodi:docname="New document 1" xmlns:dc="http://purl.org/dc/elements/1.1/" xmlns:rdf="http://www.w3.org/1999/02/22-rdf-syntax-ns#" xmlns:cc="http://creativecommons.org/ns#"
	 xmlns="http://www.w3.org/2000/svg" xmlns:xlink="http://www.w3.org/1999/xlink" x="0px" y="0px" viewBox="0 0 125 125"
	 style="enable-background:new 0 0 125 125;" xml:space="preserve">
<style type="text/css">
	.st0{fill:none;stroke:#E8E8E8;stroke-width:3.0174;}
	.st1{fill:none;stroke:#E8E8E8;stroke-width:3.0174;stroke-linecap:round;stroke-linejoin:round;}
	.st2{fill:#EAEAEA;stroke:#E8E8E8;stroke-miterlimit:10;}
</style>
<sodipodi:namedview  bordercolor="#666666" borderopacity="1.0" id="base" inkscape:current-layer="layer1" inkscape:cx="111.81315" inkscape:cy="80.268601" inkscape:document-units="px" inkscape:object-nodes="true" inkscape:object-paths="true" inkscape:pageopacity="0.0" inkscape:pageshadow="2" inkscape:snap-global="true" inkscape:snap-smooth-nodes="true" inkscape:window-height="940" inkscape:window-maximized="1" inkscape:window-width="1280" inkscape:window-x="-8" inkscape:window-y="-8" inkscape:zoom="1.4" pagecolor="#ffffff" showgrid="false">
	</sodipodi:namedview>
<g id="layer1" transform="translate(-365.28822,-546.56869)" inkscape:groupmode="layer" inkscape:label="Layer 1">
	<path id="path3738" sodipodi:nodetypes="cc" class="st0" d="M427.8,561.4c-77.4-11.5-50.5,96.1,0,96.1"/>
	<path id="use3740" sodipodi:nodetypes="cc" class="st0" d="M427.8,561.4c77.4-11.5,50.5,96.1,0,96.1"/>
	<path id="use3744" sodipodi:nodetypes="cc" class="st1" d="M427.8,561.4c50.5,11.5,30.3,96.1,0,96.1"/>
	<path id="path3742" sodipodi:nodetypes="cc" class="st1" d="M427.8,561.4c-50.5,11.5-30.3,96.1,0,96.1"/>
	<path id="path3746" class="st1" d="M427.8,561.4v96.1"/>
	<path id="path3761" class="st2" d="M423.8,624.9c-12.8-2.3-21.4-14.5-19.1-27.3c1.7-9.8,9.4-17.4,19.1-19.1"/>
	<path id="path3765" class="st2" d="M431.8,624.9c12.8-2.3,21.4-14.5,19.1-27.3c-1.7-9.8-9.4-17.4-19.1-19.1"/>
</g>
</svg>
