<?xml version="1.0" encoding="utf-8"?>
<!-- Generator: Adobe Illustrator 26.3.1, SVG Export Plug-In . SVG Version: 6.00 Build 0)  -->
<svg version="1.1" id="Layer_1" xmlns="http://www.w3.org/2000/svg" xmlns:xlink="http://www.w3.org/1999/xlink" x="0px" y="0px"
	 viewBox="0 0 125 125" style="enable-background:new 0 0 125 125;" xml:space="preserve">
<style type="text/css">
	.st0{fill:#E10B0B;}
</style>
<g>
	<path id="svg_3" class="st0" d="M13.5,46.3c-0.3,1.3-0.2,5.1,0.1,9c2.2,24.9,15,40,36.5,42.9c1.7,0.2,3.2,0.4,3.3,0.4
		c0.2,0-1-1.3-2.6-2.9c-7.4-7.7-11.9-18.1-13-30.8c-0.4-4.1-0.2-11.7,0.5-15.9c0.2-1.6,0.4-3,0.4-3.2c0-0.3-2.7-0.3-12.5-0.3H13.7
		L13.5,46.3L13.5,46.3z"/>
	<path id="svg_4" class="st0" d="M86.4,45.7c0,0.2,0.2,1.7,0.4,3.2c0.6,4.2,0.9,11.8,0.5,15.9C86.1,77.6,81.6,88,74.1,95.6
		c-1.6,1.6-2.7,2.9-2.6,2.9c0.2,0,1.6-0.2,3.3-0.4c21.5-2.9,34.4-17.9,36.5-42.9c0.3-3.9,0.4-7.7,0.1-9l-0.2-0.9H98.8
		C89,45.4,86.4,45.5,86.4,45.7z"/>
	<path id="svg_1" class="st0" d="M62.5,37.4L51.6,26.5h21.9L62.5,37.4z"/>
</g>
</svg>
