<?xml version="1.0" encoding="utf-8"?>
<!-- Generator: Adobe Illustrator 26.3.1, SVG Export Plug-In . SVG Version: 6.00 Build 0)  -->
<svg version="1.1"
	 id="svg8" xmlns:inkscape="http://www.inkscape.org/namespaces/inkscape" xmlns:sodipodi="http://sodipodi.sourceforge.net/DTD/sodipodi-0.dtd" xmlns:svg="http://www.w3.org/2000/svg" inkscape:version="1.0.2 (e86c870879, 2021-01-15)" sodipodi:docname="S√≠mbolo do Cl√£ Izuno.svg" xmlns:dc="http://purl.org/dc/elements/1.1/" xmlns:rdf="http://www.w3.org/1999/02/22-rdf-syntax-ns#" xmlns:cc="http://creativecommons.org/ns#"
	 xmlns="http://www.w3.org/2000/svg" xmlns:xlink="http://www.w3.org/1999/xlink" x="0px" y="0px" viewBox="0 0 125 125"
	 style="enable-background:new 0 0 125 125;" xml:space="preserve">
<style type="text/css">
	.st0{fill:#4FAD27;}
</style>
<sodipodi:namedview  bordercolor="#666666" borderopacity="1.0" id="base" inkscape:current-layer="layer1" inkscape:cx="8.9041096" inkscape:cy="106.93669" inkscape:document-rotation="0" inkscape:document-units="mm" inkscape:guide-bbox="true" inkscape:pageopacity="0.0" inkscape:pageshadow="2" inkscape:window-height="728" inkscape:window-maximized="0" inkscape:window-width="1344" inkscape:window-x="0" inkscape:window-y="0" inkscape:zoom="1.979899" pagecolor="#ffffff" showgrid="false" showguides="false" units="px">
	<sodipodi:guide  id="guide931" orientation="1,0" position="111.69196,178.88245"></sodipodi:guide>
	<sodipodi:guide  id="guide933" orientation="1,0" position="120.94367,180.57317"></sodipodi:guide>
	<sodipodi:guide  id="guide935" orientation="1,0" position="114.29055,182.37873"></sodipodi:guide>
	<sodipodi:guide  id="guide937" orientation="1,0" position="118.28219,180.93015"></sodipodi:guide>
	<sodipodi:guide  id="guide939" orientation="0,-1" position="118.37325,185.16668"></sodipodi:guide>
	<sodipodi:guide  id="guide941" orientation="0,-1" position="120.94367,180.57317"></sodipodi:guide>
	<sodipodi:guide  id="guide943" orientation="0,-1" position="108.65152,179.85373"></sodipodi:guide>
	<sodipodi:guide  id="guide945" orientation="0,-1" position="106.73395,177.38931"></sodipodi:guide>
	<sodipodi:guide  id="guide947" orientation="0,-1" position="123.31473,158.89695"></sodipodi:guide>
	<sodipodi:guide  id="guide949" orientation="0,-1" position="122.3759,161.1539"></sodipodi:guide>
	<sodipodi:guide  id="guide951" orientation="1,0" position="112.10286,116.19217"></sodipodi:guide>
	<sodipodi:guide  id="guide953" orientation="1,0" position="115.99607,116.93259"></sodipodi:guide>
	<sodipodi:guide  id="guide955" orientation="0,-1" position="116.84689,118.09646"></sodipodi:guide>
	<sodipodi:guide  id="guide957" orientation="1,0" position="125.09015,156.17827"></sodipodi:guide>
	<sodipodi:guide  id="guide959" orientation="1,0" position="107.06078,156.17827"></sodipodi:guide>
	<sodipodi:guide  id="guide961" orientation="0,-1" position="111.69197,187.81806"></sodipodi:guide>
</sodipodi:namedview>
<g id="layer1" inkscape:groupmode="layer" inkscape:label="Layer 1">
	<path id="path927" sodipodi:nodetypes="ccccccssccssscccssscsscccccccccccccccccccccccccccccccc" class="st0" d="M54.5,102.6
		c-3.9-7.6-4.7-10.1-4.7-32.8V54.6h12h12v15.2c0,10.9-0.2,16.4-0.7,19.6c-1.2,7.7-3.9,14.3-8,19.3c-1.8,2.2-3.4,3.8-3.4,3.8
		C58.6,110.4,56.2,105.9,54.5,102.6L54.5,102.6z M65.6,100.6c0.9-1.7,2.2-5,2.9-7.3c1.3-4.1,1.3-4.4,1.4-19.5l0.2-15.4h-8.3h-8.3
		l0.2,15.4c0.2,15.2,0.2,15.5,1.4,19.5c1.3,4.2,3.3,8.5,5.4,11.7l1.2,1.8l1.1-1.5C63.4,104.4,64.7,102.3,65.6,100.6L65.6,100.6z
		 M54.5,51.1l18.1-28h16.2l-15.9,28H54.5z M82.3,26.4h-7.2L61,48h9.1L82.3,26.4z M36.3,23.1h15.6l8.6,13.1l-8.7,13.6L36.3,23.1z
		 M55.8,36.4l-6.5-10h-6.7l9.2,16L55.8,36.4z M55.8,22.3l0.1-9.8h12.3v9.6l-6,10.7L55.8,22.3z M64.7,16h-5.3v6.1l2.8,4.7l2.5-4.7V16
		z"/>
</g>
</svg>
