<?xml version="1.0" encoding="utf-8"?>
<!-- Generator: Adobe Illustrator 26.3.1, SVG Export Plug-In . SVG Version: 6.00 Build 0)  -->
<svg version="1.1"
	 id="svg2" xmlns:inkscape="http://www.inkscape.org/namespaces/inkscape" xmlns:sodipodi="http://sodipodi.sourceforge.net/DTD/sodipodi-0.dtd" xmlns:svg="http://www.w3.org/2000/svg" inkscape:version="0.47 r22583" sodipodi:docname="New document 1" xmlns:dc="http://purl.org/dc/elements/1.1/" xmlns:rdf="http://www.w3.org/1999/02/22-rdf-syntax-ns#" xmlns:cc="http://creativecommons.org/ns#"
	 xmlns="http://www.w3.org/2000/svg" xmlns:xlink="http://www.w3.org/1999/xlink" x="0px" y="0px" viewBox="0 0 125 125"
	 style="enable-background:new 0 0 125 125;" xml:space="preserve">
<style type="text/css">
	.st0{fill:none;stroke:#686868;stroke-width:11.1111;stroke-linecap:round;stroke-linejoin:round;}
	.st1{fill:none;stroke:#686868;stroke-width:9.9862;stroke-linejoin:round;}
</style>
<defs>
	
		<inkscape:perspective  id="perspective10" inkscape:persp3d-origin="372.04724 : 350.78739 : 1" inkscape:vp_x="0 : 526.18109 : 1" inkscape:vp_y="0 : 1000 : 0" inkscape:vp_z="744.09448 : 526.18109 : 1" sodipodi:type="inkscape:persp3d">
		</inkscape:perspective>
	
		<inkscape:perspective  id="perspective3705" inkscape:persp3d-origin="0.5 : 0.33333333 : 1" inkscape:vp_x="0 : 0.5 : 1" inkscape:vp_y="0 : 1000 : 0" inkscape:vp_z="1 : 0.5 : 1" sodipodi:type="inkscape:persp3d">
		</inkscape:perspective>
</defs>
<sodipodi:namedview  bordercolor="#666666" borderopacity="1.0" id="base" inkscape:current-layer="layer1" inkscape:cx="49.999998" inkscape:cy="50" inkscape:document-units="px" inkscape:pageopacity="0.0" inkscape:pageshadow="2" inkscape:window-height="940" inkscape:window-maximized="1" inkscape:window-width="1280" inkscape:window-x="-8" inkscape:window-y="-8" inkscape:zoom="6.93" pagecolor="#ffffff" showgrid="false">
	</sodipodi:namedview>
<g id="layer1" transform="translate(-312.7186,-770.93361)" inkscape:groupmode="layer" inkscape:label="Layer 1">
	<path id="path3670" sodipodi:rx="50" sodipodi:cy="275" sodipodi:ry="50" sodipodi:cx="245" sodipodi:type="arc" class="st0" d="
		M419.9,833.4c0,24.9-20.1,45-44.9,45s-44.9-20.2-44.9-45s20.1-45,44.9-45S419.9,808.6,419.9,833.4z"/>
	<path id="path3676" sodipodi:nodetypes="ccc" class="st1" d="M413.9,811c-8.2,10-15.9,16.8-38.9,22.5S344.3,846,336.1,856"/>
	<path id="path3681" sodipodi:nodetypes="ccs" class="st1" d="M400.3,792.1c-8.2,10-15.9,16.8-38.9,22.5
		c-15.9,3.9-24.4,8.4-30.9,14.1"/>
	<path id="path3685" sodipodi:nodetypes="ccc" class="st1" d="M420.2,837.8c-6.5,5.9-15.1,10.5-31.5,14.6
		c-23,5.7-30.7,12.5-38.9,22.5"/>
	<path id="path3689" class="st1" d="M374.8,855.9v22.5"/>
	<path id="path3693" class="st1" d="M381.4,809.2l-0.6-20.4"/>
	<path id="path3695" class="st1" d="M364.3,813.2v22.3"/>
</g>
</svg>
