<?xml version="1.0" encoding="utf-8"?>
<!-- Generator: Adobe Illustrator 26.3.1, SVG Export Plug-In . SVG Version: 6.00 Build 0)  -->
<svg version="1.1"
	 id="svg2" xmlns:inkscape="http://www.inkscape.org/namespaces/inkscape" xmlns:sodipodi="http://sodipodi.sourceforge.net/DTD/sodipodi-0.dtd" xmlns:svg="http://www.w3.org/2000/svg" inkscape:version="0.91 r13725" sodipodi:docname="Símbolo_Tenro.svg" xmlns:dc="http://purl.org/dc/elements/1.1/" xmlns:rdf="http://www.w3.org/1999/02/22-rdf-syntax-ns#" xmlns:cc="http://creativecommons.org/ns#"
	 xmlns="http://www.w3.org/2000/svg" xmlns:xlink="http://www.w3.org/1999/xlink" x="0px" y="0px" viewBox="0 0 125 125"
	 style="enable-background:new 0 0 125 125;" xml:space="preserve">
<style type="text/css">
	.st0{stroke:#000000;stroke-width:3;}
</style>
<sodipodi:namedview  bordercolor="#666666" borderopacity="1" gridtolerance="10" guidetolerance="10" id="namedview11" inkscape:current-layer="g6" inkscape:cx="49.98049" inkscape:cy="50.630937" inkscape:pageopacity="0" inkscape:pageshadow="2" inkscape:window-height="737" inkscape:window-maximized="1" inkscape:window-width="1280" inkscape:window-x="-8" inkscape:window-y="-8" inkscape:zoom="5.3554207" objecttolerance="10" pagecolor="#ffffff" showgrid="false">
	</sodipodi:namedview>
<g id="g6" transform="translate(2.0000003,0)">
	
		<path id="svg_2" sodipodi:nodetypes="cccccccczccccsccsccscccccsccsccccccccccsccccsccscccsccssccccsccccccscccccccccccccccsccscccccccccccccccccccccccccccccccc" inkscape:connector-curvature="0" class="st0" d="
		M58.7,14.8c-2.6,0.7-5.1,2.8-6.3,5.4c-0.7,1.5-0.8,1.7-1.1,4.5c0.3,2.5,0.4,2.8,1.1,4.3c1.3,2.7,3.9,4.8,6.6,5.4l1.1,0.2v23.3
		l-1.2-0.2c-3.6-0.5-9.3-3.1-11.9-5.2s-4.4-4.4-5.6-6.7c-0.7-1.4-0.8-1.6-0.4-1.7c2.3-0.8,4.7-2.6,5.9-4.6c1.9-3.2,1.9-8.1,0-11.2
		c-1.9-3.2-5.2-5-9.2-5c-4,0-7.4,1.9-9.3,5.2c-1.2,2.1-1.7,5.7-1,8.5c1.1,4.2,5.3,7.6,9.5,7.6h1l0.9,1.8C41.7,52,47.5,56.9,53.9,59
		c1.4,0.5,5.2,1.2,6,1.2c0,13.6,0,0,0,13.6c-0.1,0-1.1,0.2-2.2,0.3c-8,1.3-15.3,6.6-18.9,13.7l-0.9,1.8h-1c-3.3,0-6.8,2.1-8.6,5.2
		c-1.8,3-1.7,8,0.1,11c1.9,3.2,5.2,5,9.2,5c4,0,7.3-1.8,9.2-5c1.9-3.2,1.9-8.1,0-11.2c-1.2-2-3.6-3.9-5.9-4.6
		c-0.4-0.1-0.3-0.3,0.4-1.7c1.2-2.3,3.5-5.1,5.6-6.7c3.1-2.5,8.2-4.7,11.9-5.2l1.2-0.2v33.1h2.3V76.1h0.7c0.4,0,1.7,0.2,2.8,0.3
		c5.9,1,11.7,4.2,15.1,8.5c1.3,1.7,3,4.4,2.8,4.6c0,0-0.7,0.2-1.5,0.4c-4.7,1.2-7.7,5.2-7.7,10.3c0,4,1.9,7.4,5.2,9.3
		c2.9,1.7,7.9,1.7,10.9,0c3.3-2,5.2-5.3,5.2-9.3c0-5.4-3.2-9.4-8.4-10.5c-0.5-0.1-0.8-0.5-1.5-1.9C83,82,77.2,77.2,70.8,75.1
		c-2.1-0.7-5.3-1.2-7.1-1.2h-1.3V60.3h1.3c1.8,0,5.1-0.6,7.1-1.2c6.4-2.1,12.2-7,15.1-12.8c0.7-1.4,1-1.8,1.5-1.9
		c3.1-0.7,5.6-2.4,7.1-5.1c1.7-2.9,1.7-7.9,0-10.8c-2-3.3-5.3-5.2-9.3-5.2s-7.4,1.9-9.3,5.2c-1.2,2.1-1.7,5.7-1,8.5
		c0.9,3.5,3.8,6.4,7.4,7.3c0.8,0.2,1.5,0.4,1.5,0.4c0.2,0.2-1.5,2.9-2.8,4.6c-3.4,4.3-9.2,7.6-15.1,8.5c-1.1,0.2-2.4,0.3-2.8,0.3
		h-0.7V34.5l1.1-0.2c2.8-0.4,5.8-2.7,7.1-5.5c0.7-1.5,0.9-1.7,1.1-4.4c-0.3-2.6-0.4-2.9-1.1-4.4c-1-2-2.7-3.8-4.8-4.7
		c-1.4-0.6-2-0.9-4.1-1C60.4,14.4,59.1,14.7,58.7,14.8L58.7,14.8L58.7,14.8L58.7,14.8L58.7,14.8z M64.7,17.7
		c1.7,0.8,2.7,1.8,3.6,3.7c0.6,1.2,0.7,1.7,0.7,3.2c0,1.4-0.1,1.9-0.7,3.2c-0.9,1.9-1.9,2.8-3.7,3.7c-1.2,0.6-1.7,0.7-3.2,0.7
		c-1.4,0-1.9-0.1-3.2-0.7c-1.9-0.9-2.8-1.9-3.7-3.7c-1.7-3.6-0.2-8.1,3.3-9.9C60.2,16.6,62.4,16.6,64.7,17.7z M40.7,26.1
		c2.7,1,4.4,3,5.1,5.9c0.5,1.9,0.2,3.6-0.7,5.5c-1.1,2.3-3.3,3.8-6.1,4.4c-1.7,0.3-3.9-0.1-5.7-1.2c-5-2.9-5-10.9,0-13.9
		C35.7,25.4,38.1,25.1,40.7,26.1z M88.2,26.1c2.7,1,4.4,3,5.1,5.9c0.3,1.3,0.3,1.8,0.1,2.9c-0.7,3.8-3.2,6.3-7,7
		c-1.7,0.3-3.9-0.1-5.7-1.2c-5-2.9-5-10.9,0-13.9C83.2,25.4,85.6,25.1,88.2,26.1z M40.7,92.6c2.7,1,4.4,3,5.1,5.9
		c0.3,1.3,0.3,1.8,0.1,2.9c-0.7,3.8-3.2,6.3-7,7c-1.7,0.3-3.9-0.1-5.7-1.2c-5-2.9-5-10.9,0-13.9C35.7,91.9,38.1,91.6,40.7,92.6z
		 M88.2,92.6c2.7,1,4.4,3,5.1,5.9c0.3,1.3,0.3,1.8,0.1,2.9c-0.7,3.8-3.2,6.3-7,7c-1.7,0.3-3.9-0.1-5.7-1.2c-5-2.9-5-10.9,0-13.9
		C83.2,91.9,85.6,91.6,88.2,92.6z"/>
</g>
</svg>
