<?xml version="1.0" encoding="utf-8"?>
<!-- Generator: Adobe Illustrator 26.3.1, SVG Export Plug-In . SVG Version: 6.00 Build 0)  -->
<svg version="1.1"
	 id="svg2541" xmlns:inkscape="http://www.inkscape.org/namespaces/inkscape" xmlns:sodipodi="http://sodipodi.sourceforge.net/DTD/sodipodi-0.dtd" xmlns:cc="http://creativecommons.org/ns#" xmlns:rdf="http://www.w3.org/1999/02/22-rdf-syntax-ns#" xmlns:svg="http://www.w3.org/2000/svg" xmlns:dc="http://purl.org/dc/elements/1.1/"
	 xmlns="http://www.w3.org/2000/svg" xmlns:xlink="http://www.w3.org/1999/xlink" x="0px" y="0px" viewBox="0 0 125 125"
	 style="enable-background:new 0 0 125 125;" xml:space="preserve">
<style type="text/css">
	.st0{fill-rule:evenodd;clip-rule:evenodd;fill:#006400;stroke:#006400;stroke-width:1.0073;stroke-linejoin:round;}
	.st1{fill-rule:evenodd;clip-rule:evenodd;fill:#006400;stroke:#006400;stroke-width:1.0073;}
</style>
<defs>
	
		<inkscape:perspective  id="perspective3330" inkscape:persp3d-origin="275 : 66.666672 : 1" inkscape:vp_x="0 : 100.00001 : 1" inkscape:vp_y="0 : 1000 : 0" inkscape:vp_z="550 : 100.00001 : 1" sodipodi:type="inkscape:persp3d">
		</inkscape:perspective>
</defs>
<sodipodi:namedview  bordercolor="#666666" borderopacity="1.0" gridtolerance="10.0" guidetolerance="10.0" id="base" inkscape:current-layer="svg2541" inkscape:cx="300" inkscape:cy="300" inkscape:pageopacity="0.0" inkscape:pageshadow="2" inkscape:window-height="930" inkscape:window-width="1280" inkscape:window-x="-4" inkscape:window-y="-4" inkscape:zoom="1.195" objecttolerance="10.0" pagecolor="#ffffff" showgrid="false" showguides="true">
	<inkscape:grid  enabled="true" id="grid2693" type="xygrid" visible="true"></inkscape:grid>
</sodipodi:namedview>
<path id="path2703" sodipodi:nodetypes="ccccccccc" class="st0" d="M61.1,53.6c0-1,0-1,1-1h1c1,0,1,0,1,1v17.8c0,1,0,1-1,1h-1
	c-1,0-1,0-1-1V53.6z"/>
<path id="path3593" sodipodi:nodetypes="ccccc" class="st1" d="M9.5,62.5c52.5-2.6,53.5-2.6,106,0l0,0C63,65.1,62,65.1,9.5,62.5
	L9.5,62.5z"/>
<path id="path3245" sodipodi:nodetypes="ccccccc" class="st1" d="M90.7,61.5c-0.2-2.6,2.1-6.7,6.7-7.3c5-0.2,5.9,1.8,8.6,3.8
	c1.5,1,2.5,1.3,4.8,1.4c-1.6-0.4-3.1-1-3.8-1.8c-3.8-4.4-6.3-5.5-9.5-5.5c-4.6,0.4-8.6,3-9.5,9.5"/>
<path id="path3258" sodipodi:nodetypes="ccccccc" class="st1" d="M90.7,63.5c-0.2,2.6,2.1,6.7,6.7,7.3c5,0.2,5.9-1.8,8.6-3.8
	c1.5-1,2.5-1.3,4.8-1.4c-1.6,0.4-3.1,1-3.8,1.8c-3.8,4.4-6.3,5.5-9.5,5.5c-4.6-0.4-8.6-3-9.5-9.5"/>
<path id="path3260" sodipodi:nodetypes="ccccccc" class="st1" d="M34.3,63.5c0.2,2.6-2.1,6.7-6.7,7.3C22.6,71,21.7,69,19,67
	c-1.5-1-2.5-1.3-4.8-1.4c1.6,0.4,3.1,1,3.8,1.8c3.8,4.4,6.3,5.5,9.5,5.5c4.6-0.4,8.6-3,9.5-9.5"/>
<path id="path3262" sodipodi:nodetypes="ccccccc" class="st1" d="M34.3,61.5c0.2-2.6-2.1-6.7-6.7-7.3C22.6,54,21.7,56,19,58
	c-1.5,1-2.5,1.3-4.8,1.4c1.6-0.4,3.1-1,3.8-1.8c3.8-4.4,6.3-5.5,9.5-5.5c4.6,0.4,8.6,3,9.5,9.5"/>
<path id="path3268" sodipodi:nodetypes="ccccccccc" class="st1" d="M78.3,61.5c1-8.9,7.1-15.8,16.2-16c2.9-0.2,7.6,1.2,11.5,5.1
	c1,1,2.1,3,4.8,5c0.5,0.4,1.5,1,4.4,1c-2.3-0.4-3.2-1.2-4-2c-1.3-1.2-1.3-2.6-5-6.3c-4-3.6-6.9-5-12.6-5c-8,0.4-17.6,4.4-18.7,18.2"
	/>
<path id="path3270" sodipodi:nodetypes="ccccccccc" class="st1" d="M78.3,63.5c1,8.9,7.1,15.8,16.2,16c2.9,0.2,7.6-1.2,11.5-5.1
	c1-1,2.1-3,4.8-5c0.5-0.4,1.5-1,4.4-1c-2.3,0.4-3.2,1.2-4,2c-1.3,1.2-1.3,2.6-5,6.3c-4,3.6-6.9,5-12.6,5c-8-0.4-17.6-4.4-18.7-18.2"
	/>
<path id="path3272" sodipodi:nodetypes="ccccccccc" class="st1" d="M46.7,61.5c-1-8.9-7.1-15.8-16.2-16c-2.9-0.2-7.6,1.2-11.5,5.1
	c-1,1-2.1,3-4.8,5c-0.5,0.4-1.5,1-4.4,1c2.3-0.4,3.2-1.2,4-2c1.3-1.2,1.3-2.6,5-6.3c4-3.6,6.9-5,12.6-5c8,0.4,17.6,4.4,18.7,18.2"/>
<path id="path3274" sodipodi:nodetypes="ccccccccc" class="st1" d="M46.7,63.5c-1,8.9-7.1,15.8-16.2,16c-2.9,0.2-7.6-1.2-11.5-5.1
	c-1-1-2.1-3-4.8-5c-0.5-0.4-1.5-1-4.4-1c2.3,0.4,3.2,1.2,4,2c1.3,1.2,1.3,2.6,5,6.3c4,3.6,6.9,5,12.6,5c8-0.4,17.6-4.4,18.7-18.2"/>
</svg>
