<?xml version="1.0" encoding="utf-8"?>
<!-- Generator: Adobe Illustrator 26.3.1, SVG Export Plug-In . SVG Version: 6.00 Build 0)  -->
<svg version="1.1"
	 id="svg2" xmlns:inkscape="http://www.inkscape.org/namespaces/inkscape" xmlns:sodipodi="http://sodipodi.sourceforge.net/DTD/sodipodi-0.dtd" xmlns:svg="http://www.w3.org/2000/svg" xmlns:rdf="http://www.w3.org/1999/02/22-rdf-syntax-ns#" xmlns:cc="http://creativecommons.org/ns#" xmlns:dc="http://purl.org/dc/elements/1.1/"
	 xmlns="http://www.w3.org/2000/svg" xmlns:xlink="http://www.w3.org/1999/xlink" x="0px" y="0px" viewBox="0 0 225 225"
	 style="enable-background:new 0 0 225 225;" xml:space="preserve">
<style type="text/css">
	.st0{fill:#E10000;stroke:#000000;stroke-width:5.721;stroke-linecap:round;}
	.st1{fill:#FFFFFF;stroke:#000000;stroke-width:5.721;stroke-linecap:round;}
</style>
<sodipodi:namedview  bordercolor="#666666" borderopacity="1.0" gridtolerance="10.0" guidetolerance="10.0" id="base" inkscape:current-layer="svg2" inkscape:cx="97.769572" inkscape:cy="97.115788" inkscape:object-nodes="true" inkscape:pageopacity="0.0" inkscape:pageshadow="2" inkscape:snap-center="true" inkscape:snap-global="true" inkscape:snap-intersection-grid-guide="true" inkscape:window-height="930" inkscape:window-width="1280" inkscape:window-x="0" inkscape:window-y="22" inkscape:zoom="0.89625" objecttolerance="50" pagecolor="#ffffff" showgrid="false">
	</sodipodi:namedview>
<defs>
	
		<inkscape:perspective  id="perspective9" inkscape:persp3d-origin="74.999992 : 66.666667 : 1" inkscape:vp_x="0 : 100 : 1" inkscape:vp_y="0 : 1000 : 0" inkscape:vp_z="149.99998 : 100 : 1" sodipodi:type="inkscape:persp3d">
		</inkscape:perspective>
</defs>
<path id="path3198" class="st0" d="M112.5,15.4c-39.8,0-72.1,31.5-72.1,70.4c0,6.1,0.8,12.1,2.3,17.7c16.5-16,41.6-26.2,69.8-26.2
	c28.2,0,53.4,10.2,69.8,26.2c1.5-5.7,2.3-11.6,2.3-17.7C184.6,46.9,152.3,15.4,112.5,15.4z"/>
<path id="path3237" class="st1" d="M112.5,89.9c-27.2,0-51,11.6-63.7,28.8c10.6,19.5,30.3,33.6,53.7,36.8v54.2h20.2v-54.2
	c23.3-3.2,43-17.3,53.7-36.8C163.5,101.5,139.7,89.9,112.5,89.9z"/>
</svg>
